  0
SECTION
  2
HEADER
  9
$ACADVER
  1
AC1014
  9
$HANDSEED
  5
FFFF
  9
$INSUNITS
 70
     4
  9
$MEASUREMENT
 70
     1
  0
ENDSEC
  0
SECTION
  2
TABLES
  0
TABLE
  2
VPORT
  5
8
330
0
100
AcDbSymbolTable
 70
     4
  0
VPORT
  5
2E
330
8
100
AcDbSymbolTableRecord
100
AcDbViewportTableRecord
  2
*ACTIVE
 70
     0
 10
0.0
 20
0.0
 11
1.0
 21
1.0
 12
210.0
 22
148.5
 13
0.0
 23
0.0
 14
10.0
 24
10.0
 15
10.0
 25
10.0
 16
0.0
 26
0.0
 36
1.0
 17
0.0
 27
0.0
 37
0.0
 40
341.0
 41
1.24
 42
50.0
 43
0.0
 44
0.0
 50
0.0
 51
0.0
 71
     0
 72
   100
 73
     1
 74
     3
 75
     0
 76
     0
 77
     0
 78
     0
  0
ENDTAB
  0
TABLE
  2
LTYPE
  5
5
330
0
100
AcDbSymbolTable
 70
     1
  0
LTYPE
  5
14
330
5
100
AcDbSymbolTableRecord
100
AcDbLinetypeTableRecord
  2
BYBLOCK
 70
     0
  3

 72
    65
 73
     0
 40
0.0
  0
LTYPE
  5
15
330
5
100
AcDbSymbolTableRecord
100
AcDbLinetypeTableRecord
  2
BYLAYER
 70
     0
  3

 72
    65
 73
     0
 40
0.0
  0
LTYPE
  5
16
330
5
100
AcDbSymbolTableRecord
100
AcDbLinetypeTableRecord
  2
CONTINUOUS
 70
     0
  3
Solid line
 72
    65
 73
     0
 40
0.0
  0
ENDTAB
  0
TABLE
  2
LAYER
  5
2
100
AcDbSymbolTable
 70
3
  0
LAYER
  5
50
100
AcDbSymbolTableRecord
100
AcDbLayerTableRecord
  2
0
 70
0
  6
CONTINUOUS
  0
LAYER
  5
51
100
AcDbSymbolTableRecord
100
AcDbLayerTableRecord
  2
Custom_cutouts
 70
0
  6
CONTINUOUS
  0
LAYER
  5
52
100
AcDbSymbolTableRecord
100
AcDbLayerTableRecord
  2
Enclosure_side_fasteners
 70
0
  6
CONTINUOUS
  0
ENDTAB
  0
TABLE
  2
STYLE
  5
3
330
0
100
AcDbSymbolTable
 70
     1
  0
STYLE
  5
11
330
3
100
AcDbSymbolTableRecord
100
AcDbTextStyleTableRecord
  2
STANDARD
 70
     0
 40
0.0
 41
1.0
 50
0.0
 71
     0
 42
2.5
  3
txt
  4

  0
ENDTAB
  0
TABLE
  2
VIEW
  5
6
330
0
100
AcDbSymbolTable
 70
     0
  0
ENDTAB
  0
TABLE
  2
UCS
  5
7
330
0
100
AcDbSymbolTable
 70
     0
  0
ENDTAB
  0
TABLE
  2
APPID
  5
9
330
0
100
AcDbSymbolTable
 70
     2
  0
APPID
  5
12
330
9
100
AcDbSymbolTableRecord
100
AcDbRegAppTableRecord
  2
ACAD
 70
     0
  0
ENDTAB
  0
TABLE
  2
DIMSTYLE
  5
A
330
0
100
AcDbSymbolTable
 70
     1
  0
DIMSTYLE
105
27
330
A
100
AcDbSymbolTableRecord
100
AcDbDimStyleTableRecord
  2
ISO-25
 70
     0
  3

  4

  5

  6

  7

 40
1.0
 41
2.5
 42
0.625
 43
3.75
 44
1.25
 45
0.0
 46
0.0
 47
0.0
 48
0.0
140
2.5
141
2.5
142
0.0
143
0.03937007874016
144
1.0
145
0.0
146
1.0
147
0.625
 71
     0
 72
     0
 73
     0
 74
     0
 75
     0
 76
     0
 77
     1
 78
     8
170
     0
171
     3
172
     1
173
     0
174
     0
175
     0
176
     0
177
     0
178
     0
270
     2
271
     2
272
     2
273
     2
274
     3
340
11
275
     0
280
     0
281
     0
282
     0
283
     0
284
     8
285
     0
286
     0
287
     3
288
     0
  0
ENDTAB
  0
TABLE
  2
BLOCK_RECORD
  5
1
330
0
100
AcDbSymbolTable
 70
     1
  0
BLOCK_RECORD
  5
1F
330
1
100
AcDbSymbolTableRecord
100
AcDbBlockTableRecord
  2
*MODEL_SPACE
  0
BLOCK_RECORD
  5
1B
330
1
100
AcDbSymbolTableRecord
100
AcDbBlockTableRecord
  2
*PAPER_SPACE
  0
ENDTAB
  0
ENDSEC
  0
SECTION
  2
BLOCKS
  0
BLOCK
  5
20
330
1F
100
AcDbEntity
  8
0
100
AcDbBlockBegin
  2
*MODEL_SPACE
 70
     0
 10
0.0
 20
0.0
 30
0.0
  3
*MODEL_SPACE
  1

  0
ENDBLK
  5
21
330
1F
100
AcDbEntity
  8
0
100
AcDbBlockEnd
  0
BLOCK
  5
1C
330
1B
100
AcDbEntity
 67
     1
  8
0
100
AcDbBlockBegin
  2
*PAPER_SPACE
  1

  0
ENDBLK
  5
1D
330
1B
100
AcDbEntity
 67
     1
  8
0
100
AcDbBlockEnd
  0
ENDSEC
  0
SECTION
  2
ENTITIES
  0
SPLINE
  5
100
100
AcDbEntity
  8
Custom_cutouts
 62
7
100
AcDbSpline
 70
8
 71
3
 72
8
 73
4
 74
0
 40
0
 40
0
 40
0
 40
0
 40
1
 40
1
 40
1
 40
1
 10
284.232359
 20
50.895503
 30
0.0
 10
284.232359
 20
51.779159
 30
0.0
 10
283.516014
 20
52.495504
 30
0.0
 10
282.632358
 20
52.495504
 30
0.0
  0
SPLINE
  5
101
100
AcDbEntity
  8
Custom_cutouts
 62
7
100
AcDbSpline
 70
8
 71
3
 72
8
 73
4
 74
0
 40
0
 40
0
 40
0
 40
0
 40
1
 40
1
 40
1
 40
1
 10
282.632358
 20
52.495504
 30
0.0
 10
281.748701
 20
52.495504
 30
0.0
 10
281.032356
 20
51.779159
 30
0.0
 10
281.032356
 20
50.895503
 30
0.0
  0
SPLINE
  5
102
100
AcDbEntity
  8
Custom_cutouts
 62
7
100
AcDbSpline
 70
8
 71
3
 72
8
 73
4
 74
0
 40
0
 40
0
 40
0
 40
0
 40
1
 40
1
 40
1
 40
1
 10
281.032356
 20
50.895503
 30
0.0
 10
281.032356
 20
50.011847
 30
0.0
 10
281.748701
 20
49.295502
 30
0.0
 10
282.632358
 20
49.295502
 30
0.0
  0
SPLINE
  5
103
100
AcDbEntity
  8
Custom_cutouts
 62
7
100
AcDbSpline
 70
8
 71
3
 72
8
 73
4
 74
0
 40
0
 40
0
 40
0
 40
0
 40
1
 40
1
 40
1
 40
1
 10
282.632358
 20
49.295502
 30
0.0
 10
283.516014
 20
49.295502
 30
0.0
 10
284.232359
 20
50.011847
 30
0.0
 10
284.232359
 20
50.895503
 30
0.0
  0
LINE
  5
104
100
AcDbEntity
  8
Custom_cutouts
 62
7
100
AcDbLine
 10
284.232359
 20
50.895503
 30
0.0
 11
284.232359
 21
50.895503
 31
0.0
  0
SPLINE
  5
105
100
AcDbEntity
  8
Custom_cutouts
 62
7
100
AcDbSpline
 70
8
 71
3
 72
8
 73
4
 74
0
 40
0
 40
0
 40
0
 40
0
 40
1
 40
1
 40
1
 40
1
 10
346.232359
 20
67.682313
 30
0.0
 10
346.230714
 20
68.840945
 30
0.0
 10
345.290995
 20
69.779331
 30
0.0
 10
344.132361
 20
69.779331
 30
0.0
  0
SPLINE
  5
106
100
AcDbEntity
  8
Custom_cutouts
 62
7
100
AcDbSpline
 70
8
 71
3
 72
8
 73
4
 74
0
 40
0
 40
0
 40
0
 40
0
 40
1
 40
1
 40
1
 40
1
 10
344.132361
 20
69.779331
 30
0.0
 10
342.973727
 20
69.779331
 30
0.0
 10
342.034008
 20
68.840945
 30
0.0
 10
342.032363
 20
67.682313
 30
0.0
  0
SPLINE
  5
107
100
AcDbEntity
  8
Custom_cutouts
 62
7
100
AcDbSpline
 70
8
 71
3
 72
8
 73
4
 74
0
 40
0
 40
0
 40
0
 40
0
 40
1
 40
1
 40
1
 40
1
 10
342.032363
 20
67.682313
 30
0.0
 10
342.034008
 20
66.523680
 30
0.0
 10
342.973727
 20
65.585294
 30
0.0
 10
344.132361
 20
65.585294
 30
0.0
  0
SPLINE
  5
108
100
AcDbEntity
  8
Custom_cutouts
 62
7
100
AcDbSpline
 70
8
 71
3
 72
8
 73
4
 74
0
 40
0
 40
0
 40
0
 40
0
 40
1
 40
1
 40
1
 40
1
 10
344.132361
 20
65.585294
 30
0.0
 10
345.290995
 20
65.585294
 30
0.0
 10
346.230714
 20
66.523680
 30
0.0
 10
346.232359
 20
67.682313
 30
0.0
  0
LINE
  5
109
100
AcDbEntity
  8
Custom_cutouts
 62
7
100
AcDbLine
 10
346.232359
 20
67.682313
 30
0.0
 11
346.232359
 21
67.682313
 31
0.0
  0
SPLINE
  5
10a
100
AcDbEntity
  8
Custom_cutouts
 62
7
100
AcDbSpline
 70
8
 71
3
 72
8
 73
4
 74
0
 40
0
 40
0
 40
0
 40
0
 40
1
 40
1
 40
1
 40
1
 10
398.132366
 20
42.682312
 30
0.0
 10
398.132366
 20
53.043015
 30
0.0
 10
392.604997
 20
62.616699
 30
0.0
 10
383.632365
 20
67.797050
 30
0.0
  0
SPLINE
  5
10b
100
AcDbEntity
  8
Custom_cutouts
 62
7
100
AcDbSpline
 70
8
 71
3
 72
8
 73
4
 74
0
 40
0
 40
0
 40
0
 40
0
 40
1
 40
1
 40
1
 40
1
 10
383.632365
 20
67.797050
 30
0.0
 10
374.659734
 20
72.977401
 30
0.0
 10
363.604996
 20
72.977401
 30
0.0
 10
354.632364
 20
67.797050
 30
0.0
  0
SPLINE
  5
10c
100
AcDbEntity
  8
Custom_cutouts
 62
7
100
AcDbSpline
 70
8
 71
3
 72
8
 73
4
 74
0
 40
0
 40
0
 40
0
 40
0
 40
1
 40
1
 40
1
 40
1
 10
354.632364
 20
67.797050
 30
0.0
 10
345.659733
 20
62.616699
 30
0.0
 10
340.132364
 20
53.043015
 30
0.0
 10
340.132364
 20
42.682312
 30
0.0
  0
SPLINE
  5
10d
100
AcDbEntity
  8
Custom_cutouts
 62
7
100
AcDbSpline
 70
8
 71
3
 72
8
 73
4
 74
0
 40
0
 40
0
 40
0
 40
0
 40
1
 40
1
 40
1
 40
1
 10
340.132364
 20
42.682312
 30
0.0
 10
340.132364
 20
32.321610
 30
0.0
 10
345.659733
 20
22.747926
 30
0.0
 10
354.632364
 20
17.567574
 30
0.0
  0
SPLINE
  5
10e
100
AcDbEntity
  8
Custom_cutouts
 62
7
100
AcDbSpline
 70
8
 71
3
 72
8
 73
4
 74
0
 40
0
 40
0
 40
0
 40
0
 40
1
 40
1
 40
1
 40
1
 10
354.632364
 20
17.567574
 30
0.0
 10
363.604996
 20
12.387223
 30
0.0
 10
374.659734
 20
12.387223
 30
0.0
 10
383.632365
 20
17.567574
 30
0.0
  0
SPLINE
  5
10f
100
AcDbEntity
  8
Custom_cutouts
 62
7
100
AcDbSpline
 70
8
 71
3
 72
8
 73
4
 74
0
 40
0
 40
0
 40
0
 40
0
 40
1
 40
1
 40
1
 40
1
 10
383.632365
 20
17.567574
 30
0.0
 10
392.604997
 20
22.747926
 30
0.0
 10
398.132366
 20
32.321610
 30
0.0
 10
398.132366
 20
42.682312
 30
0.0
  0
LINE
  5
110
100
AcDbEntity
  8
Custom_cutouts
 62
7
100
AcDbLine
 10
398.132366
 20
42.682312
 30
0.0
 11
398.132366
 21
42.682312
 31
0.0
  0
SPLINE
  5
111
100
AcDbEntity
  8
Custom_cutouts
 62
7
100
AcDbSpline
 70
8
 71
3
 72
8
 73
4
 74
0
 40
0
 40
0
 40
0
 40
0
 40
1
 40
1
 40
1
 40
1
 10
346.232359
 20
17.682311
 30
0.0
 10
346.230714
 20
18.840944
 30
0.0
 10
345.290995
 20
19.779330
 30
0.0
 10
344.132361
 20
19.779330
 30
0.0
  0
SPLINE
  5
112
100
AcDbEntity
  8
Custom_cutouts
 62
7
100
AcDbSpline
 70
8
 71
3
 72
8
 73
4
 74
0
 40
0
 40
0
 40
0
 40
0
 40
1
 40
1
 40
1
 40
1
 10
344.132361
 20
19.779330
 30
0.0
 10
342.973727
 20
19.779330
 30
0.0
 10
342.034008
 20
18.840944
 30
0.0
 10
342.032363
 20
17.682311
 30
0.0
  0
SPLINE
  5
113
100
AcDbEntity
  8
Custom_cutouts
 62
7
100
AcDbSpline
 70
8
 71
3
 72
8
 73
4
 74
0
 40
0
 40
0
 40
0
 40
0
 40
1
 40
1
 40
1
 40
1
 10
342.032363
 20
17.682311
 30
0.0
 10
342.034008
 20
16.523678
 30
0.0
 10
342.973727
 20
15.585293
 30
0.0
 10
344.132361
 20
15.585293
 30
0.0
  0
SPLINE
  5
114
100
AcDbEntity
  8
Custom_cutouts
 62
7
100
AcDbSpline
 70
8
 71
3
 72
8
 73
4
 74
0
 40
0
 40
0
 40
0
 40
0
 40
1
 40
1
 40
1
 40
1
 10
344.132361
 20
15.585293
 30
0.0
 10
345.290995
 20
15.585293
 30
0.0
 10
346.230714
 20
16.523678
 30
0.0
 10
346.232359
 20
17.682311
 30
0.0
  0
LINE
  5
115
100
AcDbEntity
  8
Custom_cutouts
 62
7
100
AcDbLine
 10
346.232359
 20
17.682311
 30
0.0
 11
346.232359
 21
17.682311
 31
0.0
  0
SPLINE
  5
116
100
AcDbEntity
  8
Custom_cutouts
 62
7
100
AcDbSpline
 70
8
 71
3
 72
8
 73
4
 74
0
 40
0
 40
0
 40
0
 40
0
 40
1
 40
1
 40
1
 40
1
 10
265.232365
 20
74.895503
 30
0.0
 10
265.232365
 20
75.467129
 30
0.0
 10
264.927406
 20
75.995332
 30
0.0
 10
264.432364
 20
76.281145
 30
0.0
  0
SPLINE
  5
117
100
AcDbEntity
  8
Custom_cutouts
 62
7
100
AcDbSpline
 70
8
 71
3
 72
8
 73
4
 74
0
 40
0
 40
0
 40
0
 40
0
 40
1
 40
1
 40
1
 40
1
 10
264.432364
 20
76.281145
 30
0.0
 10
263.937322
 20
76.566958
 30
0.0
 10
263.327405
 20
76.566958
 30
0.0
 10
262.832362
 20
76.281145
 30
0.0
  0
SPLINE
  5
118
100
AcDbEntity
  8
Custom_cutouts
 62
7
100
AcDbSpline
 70
8
 71
3
 72
8
 73
4
 74
0
 40
0
 40
0
 40
0
 40
0
 40
1
 40
1
 40
1
 40
1
 10
262.832362
 20
76.281145
 30
0.0
 10
262.337320
 20
75.995332
 30
0.0
 10
262.032362
 20
75.467129
 30
0.0
 10
262.032362
 20
74.895503
 30
0.0
  0
SPLINE
  5
119
100
AcDbEntity
  8
Custom_cutouts
 62
7
100
AcDbSpline
 70
8
 71
3
 72
8
 73
4
 74
0
 40
0
 40
0
 40
0
 40
0
 40
1
 40
1
 40
1
 40
1
 10
262.032362
 20
74.895503
 30
0.0
 10
262.032362
 20
74.323878
 30
0.0
 10
262.337320
 20
73.795674
 30
0.0
 10
262.832362
 20
73.509861
 30
0.0
  0
SPLINE
  5
11a
100
AcDbEntity
  8
Custom_cutouts
 62
7
100
AcDbSpline
 70
8
 71
3
 72
8
 73
4
 74
0
 40
0
 40
0
 40
0
 40
0
 40
1
 40
1
 40
1
 40
1
 10
262.832362
 20
73.509861
 30
0.0
 10
263.327405
 20
73.224048
 30
0.0
 10
263.937322
 20
73.224048
 30
0.0
 10
264.432364
 20
73.509861
 30
0.0
  0
SPLINE
  5
11b
100
AcDbEntity
  8
Custom_cutouts
 62
7
100
AcDbSpline
 70
8
 71
3
 72
8
 73
4
 74
0
 40
0
 40
0
 40
0
 40
0
 40
1
 40
1
 40
1
 40
1
 10
264.432364
 20
73.509861
 30
0.0
 10
264.927406
 20
73.795674
 30
0.0
 10
265.232365
 20
74.323878
 30
0.0
 10
265.232365
 20
74.895503
 30
0.0
  0
LINE
  5
11c
100
AcDbEntity
  8
Custom_cutouts
 62
7
100
AcDbLine
 10
265.232365
 20
74.895503
 30
0.0
 11
265.232365
 21
74.895503
 31
0.0
  0
SPLINE
  5
11d
100
AcDbEntity
  8
Custom_cutouts
 62
7
100
AcDbSpline
 70
8
 71
3
 72
8
 73
4
 74
0
 40
0
 40
0
 40
0
 40
0
 40
1
 40
1
 40
1
 40
1
 10
285.232352
 20
25.987918
 30
0.0
 10
285.224331
 20
32.664883
 30
0.0
 10
279.809330
 20
38.073382
 30
0.0
 10
273.132360
 20
38.073382
 30
0.0
  0
SPLINE
  5
11e
100
AcDbEntity
  8
Custom_cutouts
 62
7
100
AcDbSpline
 70
8
 71
3
 72
8
 73
4
 74
0
 40
0
 40
0
 40
0
 40
0
 40
1
 40
1
 40
1
 40
1
 10
273.132360
 20
38.073382
 30
0.0
 10
266.455391
 20
38.073382
 30
0.0
 10
261.040390
 20
32.664883
 30
0.0
 10
261.032369
 20
25.987918
 30
0.0
  0
SPLINE
  5
11f
100
AcDbEntity
  8
Custom_cutouts
 62
7
100
AcDbSpline
 70
8
 71
3
 72
8
 73
4
 74
0
 40
0
 40
0
 40
0
 40
0
 40
1
 40
1
 40
1
 40
1
 10
261.032369
 20
25.987918
 30
0.0
 10
261.040390
 20
19.310953
 30
0.0
 10
266.455391
 20
13.902454
 30
0.0
 10
273.132360
 20
13.902454
 30
0.0
  0
SPLINE
  5
120
100
AcDbEntity
  8
Custom_cutouts
 62
7
100
AcDbSpline
 70
8
 71
3
 72
8
 73
4
 74
0
 40
0
 40
0
 40
0
 40
0
 40
1
 40
1
 40
1
 40
1
 10
273.132360
 20
13.902454
 30
0.0
 10
279.809330
 20
13.902454
 30
0.0
 10
285.224331
 20
19.310953
 30
0.0
 10
285.232352
 20
25.987918
 30
0.0
  0
LINE
  5
121
100
AcDbEntity
  8
Custom_cutouts
 62
7
100
AcDbLine
 10
285.232352
 20
25.987918
 30
0.0
 11
285.232352
 21
25.987918
 31
0.0
  0
SPLINE
  5
122
100
AcDbEntity
  8
Custom_cutouts
 62
7
100
AcDbSpline
 70
8
 71
3
 72
8
 73
4
 74
0
 40
0
 40
0
 40
0
 40
0
 40
1
 40
1
 40
1
 40
1
 10
265.232365
 20
37.987918
 30
0.0
 10
265.232365
 20
38.559544
 30
0.0
 10
264.927406
 20
39.087748
 30
0.0
 10
264.432364
 20
39.373560
 30
0.0
  0
SPLINE
  5
123
100
AcDbEntity
  8
Custom_cutouts
 62
7
100
AcDbSpline
 70
8
 71
3
 72
8
 73
4
 74
0
 40
0
 40
0
 40
0
 40
0
 40
1
 40
1
 40
1
 40
1
 10
264.432364
 20
39.373560
 30
0.0
 10
263.937322
 20
39.659373
 30
0.0
 10
263.327405
 20
39.659373
 30
0.0
 10
262.832362
 20
39.373560
 30
0.0
  0
SPLINE
  5
124
100
AcDbEntity
  8
Custom_cutouts
 62
7
100
AcDbSpline
 70
8
 71
3
 72
8
 73
4
 74
0
 40
0
 40
0
 40
0
 40
0
 40
1
 40
1
 40
1
 40
1
 10
262.832362
 20
39.373560
 30
0.0
 10
262.337320
 20
39.087748
 30
0.0
 10
262.032362
 20
38.559544
 30
0.0
 10
262.032362
 20
37.987918
 30
0.0
  0
SPLINE
  5
125
100
AcDbEntity
  8
Custom_cutouts
 62
7
100
AcDbSpline
 70
8
 71
3
 72
8
 73
4
 74
0
 40
0
 40
0
 40
0
 40
0
 40
1
 40
1
 40
1
 40
1
 10
262.032362
 20
37.987918
 30
0.0
 10
262.032362
 20
37.416293
 30
0.0
 10
262.337320
 20
36.888089
 30
0.0
 10
262.832362
 20
36.602276
 30
0.0
  0
SPLINE
  5
126
100
AcDbEntity
  8
Custom_cutouts
 62
7
100
AcDbSpline
 70
8
 71
3
 72
8
 73
4
 74
0
 40
0
 40
0
 40
0
 40
0
 40
1
 40
1
 40
1
 40
1
 10
262.832362
 20
36.602276
 30
0.0
 10
263.327405
 20
36.316464
 30
0.0
 10
263.937322
 20
36.316464
 30
0.0
 10
264.432364
 20
36.602276
 30
0.0
  0
SPLINE
  5
127
100
AcDbEntity
  8
Custom_cutouts
 62
7
100
AcDbSpline
 70
8
 71
3
 72
8
 73
4
 74
0
 40
0
 40
0
 40
0
 40
0
 40
1
 40
1
 40
1
 40
1
 10
264.432364
 20
36.602276
 30
0.0
 10
264.927406
 20
36.888089
 30
0.0
 10
265.232365
 20
37.416293
 30
0.0
 10
265.232365
 20
37.987918
 30
0.0
  0
LINE
  5
128
100
AcDbEntity
  8
Custom_cutouts
 62
7
100
AcDbLine
 10
265.232365
 20
37.987918
 30
0.0
 11
265.232365
 21
37.987918
 31
0.0
  0
SPLINE
  5
129
100
AcDbEntity
  8
Custom_cutouts
 62
7
100
AcDbSpline
 70
8
 71
3
 72
8
 73
4
 74
0
 40
0
 40
0
 40
0
 40
0
 40
1
 40
1
 40
1
 40
1
 10
396.232366
 20
67.682313
 30
0.0
 10
396.230721
 20
68.840945
 30
0.0
 10
395.291002
 20
69.779331
 30
0.0
 10
394.132369
 20
69.779331
 30
0.0
  0
SPLINE
  5
12a
100
AcDbEntity
  8
Custom_cutouts
 62
7
100
AcDbSpline
 70
8
 71
3
 72
8
 73
4
 74
0
 40
0
 40
0
 40
0
 40
0
 40
1
 40
1
 40
1
 40
1
 10
394.132369
 20
69.779331
 30
0.0
 10
392.973735
 20
69.779331
 30
0.0
 10
392.034016
 20
68.840945
 30
0.0
 10
392.032371
 20
67.682313
 30
0.0
  0
SPLINE
  5
12b
100
AcDbEntity
  8
Custom_cutouts
 62
7
100
AcDbSpline
 70
8
 71
3
 72
8
 73
4
 74
0
 40
0
 40
0
 40
0
 40
0
 40
1
 40
1
 40
1
 40
1
 10
392.032371
 20
67.682313
 30
0.0
 10
392.034016
 20
66.523680
 30
0.0
 10
392.973735
 20
65.585294
 30
0.0
 10
394.132369
 20
65.585294
 30
0.0
  0
SPLINE
  5
12c
100
AcDbEntity
  8
Custom_cutouts
 62
7
100
AcDbSpline
 70
8
 71
3
 72
8
 73
4
 74
0
 40
0
 40
0
 40
0
 40
0
 40
1
 40
1
 40
1
 40
1
 10
394.132369
 20
65.585294
 30
0.0
 10
395.291002
 20
65.585294
 30
0.0
 10
396.230721
 20
66.523680
 30
0.0
 10
396.232366
 20
67.682313
 30
0.0
  0
LINE
  5
12d
100
AcDbEntity
  8
Custom_cutouts
 62
7
100
AcDbLine
 10
396.232366
 20
67.682313
 30
0.0
 11
396.232366
 21
67.682313
 31
0.0
  0
SPLINE
  5
12e
100
AcDbEntity
  8
Custom_cutouts
 62
7
100
AcDbSpline
 70
8
 71
3
 72
8
 73
4
 74
0
 40
0
 40
0
 40
0
 40
0
 40
1
 40
1
 40
1
 40
1
 10
396.232366
 20
17.682311
 30
0.0
 10
396.230721
 20
18.840944
 30
0.0
 10
395.291002
 20
19.779330
 30
0.0
 10
394.132369
 20
19.779330
 30
0.0
  0
SPLINE
  5
12f
100
AcDbEntity
  8
Custom_cutouts
 62
7
100
AcDbSpline
 70
8
 71
3
 72
8
 73
4
 74
0
 40
0
 40
0
 40
0
 40
0
 40
1
 40
1
 40
1
 40
1
 10
394.132369
 20
19.779330
 30
0.0
 10
392.973735
 20
19.779330
 30
0.0
 10
392.034016
 20
18.840944
 30
0.0
 10
392.032371
 20
17.682311
 30
0.0
  0
SPLINE
  5
130
100
AcDbEntity
  8
Custom_cutouts
 62
7
100
AcDbSpline
 70
8
 71
3
 72
8
 73
4
 74
0
 40
0
 40
0
 40
0
 40
0
 40
1
 40
1
 40
1
 40
1
 10
392.032371
 20
17.682311
 30
0.0
 10
392.034016
 20
16.523678
 30
0.0
 10
392.973735
 20
15.585293
 30
0.0
 10
394.132369
 20
15.585293
 30
0.0
  0
SPLINE
  5
131
100
AcDbEntity
  8
Custom_cutouts
 62
7
100
AcDbSpline
 70
8
 71
3
 72
8
 73
4
 74
0
 40
0
 40
0
 40
0
 40
0
 40
1
 40
1
 40
1
 40
1
 10
394.132369
 20
15.585293
 30
0.0
 10
395.291002
 20
15.585293
 30
0.0
 10
396.230721
 20
16.523678
 30
0.0
 10
396.232366
 20
17.682311
 30
0.0
  0
LINE
  5
132
100
AcDbEntity
  8
Custom_cutouts
 62
7
100
AcDbLine
 10
396.232366
 20
17.682311
 30
0.0
 11
396.232366
 21
17.682311
 31
0.0
  0
SPLINE
  5
133
100
AcDbEntity
  8
Custom_cutouts
 62
7
100
AcDbSpline
 70
8
 71
3
 72
8
 73
4
 74
0
 40
0
 40
0
 40
0
 40
0
 40
1
 40
1
 40
1
 40
1
 10
284.232359
 20
13.987918
 30
0.0
 10
284.232359
 20
14.871574
 30
0.0
 10
283.516014
 20
15.587919
 30
0.0
 10
282.632358
 20
15.587919
 30
0.0
  0
SPLINE
  5
134
100
AcDbEntity
  8
Custom_cutouts
 62
7
100
AcDbSpline
 70
8
 71
3
 72
8
 73
4
 74
0
 40
0
 40
0
 40
0
 40
0
 40
1
 40
1
 40
1
 40
1
 10
282.632358
 20
15.587919
 30
0.0
 10
281.748701
 20
15.587919
 30
0.0
 10
281.032356
 20
14.871574
 30
0.0
 10
281.032356
 20
13.987918
 30
0.0
  0
SPLINE
  5
135
100
AcDbEntity
  8
Custom_cutouts
 62
7
100
AcDbSpline
 70
8
 71
3
 72
8
 73
4
 74
0
 40
0
 40
0
 40
0
 40
0
 40
1
 40
1
 40
1
 40
1
 10
281.032356
 20
13.987918
 30
0.0
 10
281.032356
 20
13.104262
 30
0.0
 10
281.748701
 20
12.387917
 30
0.0
 10
282.632358
 20
12.387917
 30
0.0
  0
SPLINE
  5
136
100
AcDbEntity
  8
Custom_cutouts
 62
7
100
AcDbSpline
 70
8
 71
3
 72
8
 73
4
 74
0
 40
0
 40
0
 40
0
 40
0
 40
1
 40
1
 40
1
 40
1
 10
282.632358
 20
12.387917
 30
0.0
 10
283.516014
 20
12.387917
 30
0.0
 10
284.232359
 20
13.104262
 30
0.0
 10
284.232359
 20
13.987918
 30
0.0
  0
LINE
  5
137
100
AcDbEntity
  8
Custom_cutouts
 62
7
100
AcDbLine
 10
284.232359
 20
13.987918
 30
0.0
 11
284.232359
 21
13.987918
 31
0.0
  0
SPLINE
  5
138
100
AcDbEntity
  8
Custom_cutouts
 62
7
100
AcDbSpline
 70
8
 71
3
 72
8
 73
4
 74
0
 40
0
 40
0
 40
0
 40
0
 40
1
 40
1
 40
1
 40
1
 10
285.232352
 20
62.895503
 30
0.0
 10
285.224331
 20
69.572468
 30
0.0
 10
279.809330
 20
74.980967
 30
0.0
 10
273.132360
 20
74.980967
 30
0.0
  0
SPLINE
  5
139
100
AcDbEntity
  8
Custom_cutouts
 62
7
100
AcDbSpline
 70
8
 71
3
 72
8
 73
4
 74
0
 40
0
 40
0
 40
0
 40
0
 40
1
 40
1
 40
1
 40
1
 10
273.132360
 20
74.980967
 30
0.0
 10
266.455391
 20
74.980967
 30
0.0
 10
261.040390
 20
69.572468
 30
0.0
 10
261.032369
 20
62.895503
 30
0.0
  0
SPLINE
  5
13a
100
AcDbEntity
  8
Custom_cutouts
 62
7
100
AcDbSpline
 70
8
 71
3
 72
8
 73
4
 74
0
 40
0
 40
0
 40
0
 40
0
 40
1
 40
1
 40
1
 40
1
 10
261.032369
 20
62.895503
 30
0.0
 10
261.040390
 20
56.218538
 30
0.0
 10
266.455391
 20
50.810038
 30
0.0
 10
273.132360
 20
50.810038
 30
0.0
  0
SPLINE
  5
13b
100
AcDbEntity
  8
Custom_cutouts
 62
7
100
AcDbSpline
 70
8
 71
3
 72
8
 73
4
 74
0
 40
0
 40
0
 40
0
 40
0
 40
1
 40
1
 40
1
 40
1
 10
273.132360
 20
50.810038
 30
0.0
 10
279.809330
 20
50.810038
 30
0.0
 10
285.224331
 20
56.218538
 30
0.0
 10
285.232352
 20
62.895503
 30
0.0
  0
LINE
  5
13c
100
AcDbEntity
  8
Custom_cutouts
 62
7
100
AcDbLine
 10
285.232352
 20
62.895503
 30
0.0
 11
285.232352
 21
62.895503
 31
0.0
  0
LINE
  5
13d
100
AcDbEntity
  8
Custom_cutouts
 62
7
100
AcDbLine
 10
446.132758
 20
0.132292
 30
0.0
 11
446.132758
 21
1.632215
 31
0.0
  0
LINE
  5
13e
100
AcDbEntity
  8
Custom_cutouts
 62
7
100
AcDbLine
 10
446.132758
 20
85.232314
 30
0.0
 11
446.132758
 21
83.732315
 31
0.0
  0
LINE
  5
13f
100
AcDbEntity
  8
Custom_cutouts
 62
7
100
AcDbLine
 10
0.132292
 20
83.732315
 30
0.0
 11
0.132292
 21
85.232314
 31
0.0
  0
LINE
  5
140
100
AcDbEntity
  8
Custom_cutouts
 62
7
100
AcDbLine
 10
0.132292
 20
0.132292
 30
0.0
 11
446.132758
 21
0.132292
 31
0.0
  0
LINE
  5
141
100
AcDbEntity
  8
Custom_cutouts
 62
7
100
AcDbLine
 10
0.132292
 20
85.232314
 30
0.0
 11
446.132758
 21
85.232314
 31
0.0
  0
LINE
  5
142
100
AcDbEntity
  8
Custom_cutouts
 62
7
100
AcDbLine
 10
0.132292
 20
1.632215
 30
0.0
 11
0.132292
 21
83.732315
 31
0.0
  0
LINE
  5
143
100
AcDbEntity
  8
Custom_cutouts
 62
7
100
AcDbLine
 10
446.132758
 20
83.732315
 30
0.0
 11
446.132758
 21
1.632215
 31
0.0
  0
SPLINE
  5
144
100
AcDbEntity
  8
Enclosure_side_fasteners
 62
7
100
AcDbSpline
 70
8
 71
3
 72
8
 73
4
 74
0
 40
0
 40
0
 40
0
 40
0
 40
1
 40
1
 40
1
 40
1
 10
8.632357
 20
77.407313
 30
0.0
 10
8.632357
 20
78.300477
 30
0.0
 10
8.155860
 20
79.125795
 30
0.0
 10
7.382357
 20
79.572377
 30
0.0
  0
SPLINE
  5
145
100
AcDbEntity
  8
Enclosure_side_fasteners
 62
7
100
AcDbSpline
 70
8
 71
3
 72
8
 73
4
 74
0
 40
0
 40
0
 40
0
 40
0
 40
1
 40
1
 40
1
 40
1
 10
7.382357
 20
79.572377
 30
0.0
 10
6.608854
 20
80.018959
 30
0.0
 10
5.655859
 20
80.018959
 30
0.0
 10
4.882356
 20
79.572377
 30
0.0
  0
SPLINE
  5
146
100
AcDbEntity
  8
Enclosure_side_fasteners
 62
7
100
AcDbSpline
 70
8
 71
3
 72
8
 73
4
 74
0
 40
0
 40
0
 40
0
 40
0
 40
1
 40
1
 40
1
 40
1
 10
4.882356
 20
79.572377
 30
0.0
 10
4.108854
 20
79.125795
 30
0.0
 10
3.632356
 20
78.300477
 30
0.0
 10
3.632356
 20
77.407313
 30
0.0
  0
SPLINE
  5
147
100
AcDbEntity
  8
Enclosure_side_fasteners
 62
7
100
AcDbSpline
 70
8
 71
3
 72
8
 73
4
 74
0
 40
0
 40
0
 40
0
 40
0
 40
1
 40
1
 40
1
 40
1
 10
3.632356
 20
77.407313
 30
0.0
 10
3.632356
 20
76.514149
 30
0.0
 10
4.108854
 20
75.688831
 30
0.0
 10
4.882356
 20
75.242249
 30
0.0
  0
SPLINE
  5
148
100
AcDbEntity
  8
Enclosure_side_fasteners
 62
7
100
AcDbSpline
 70
8
 71
3
 72
8
 73
4
 74
0
 40
0
 40
0
 40
0
 40
0
 40
1
 40
1
 40
1
 40
1
 10
4.882356
 20
75.242249
 30
0.0
 10
5.655859
 20
74.795667
 30
0.0
 10
6.608854
 20
74.795667
 30
0.0
 10
7.382357
 20
75.242249
 30
0.0
  0
SPLINE
  5
149
100
AcDbEntity
  8
Enclosure_side_fasteners
 62
7
100
AcDbSpline
 70
8
 71
3
 72
8
 73
4
 74
0
 40
0
 40
0
 40
0
 40
0
 40
1
 40
1
 40
1
 40
1
 10
7.382357
 20
75.242249
 30
0.0
 10
8.155860
 20
75.688831
 30
0.0
 10
8.632357
 20
76.514149
 30
0.0
 10
8.632357
 20
77.407313
 30
0.0
  0
LINE
  5
14a
100
AcDbEntity
  8
Enclosure_side_fasteners
 62
7
100
AcDbLine
 10
8.632357
 20
77.407313
 30
0.0
 11
8.632357
 21
77.407313
 31
0.0
  0
SPLINE
  5
14b
100
AcDbEntity
  8
Enclosure_side_fasteners
 62
7
100
AcDbSpline
 70
8
 71
3
 72
8
 73
4
 74
0
 40
0
 40
0
 40
0
 40
0
 40
1
 40
1
 40
1
 40
1
 10
7.632356
 20
77.407313
 30
0.0
 10
7.631754
 20
78.235314
 30
0.0
 10
6.960358
 20
78.906222
 30
0.0
 10
6.132357
 20
78.906222
 30
0.0
  0
SPLINE
  5
14c
100
AcDbEntity
  8
Enclosure_side_fasteners
 62
7
100
AcDbSpline
 70
8
 71
3
 72
8
 73
4
 74
0
 40
0
 40
0
 40
0
 40
0
 40
1
 40
1
 40
1
 40
1
 10
6.132357
 20
78.906222
 30
0.0
 10
5.304356
 20
78.906222
 30
0.0
 10
4.632959
 20
78.235314
 30
0.0
 10
4.632357
 20
77.407313
 30
0.0
  0
SPLINE
  5
14d
100
AcDbEntity
  8
Enclosure_side_fasteners
 62
7
100
AcDbSpline
 70
8
 71
3
 72
8
 73
4
 74
0
 40
0
 40
0
 40
0
 40
0
 40
1
 40
1
 40
1
 40
1
 10
4.632357
 20
77.407313
 30
0.0
 10
4.632959
 20
76.579312
 30
0.0
 10
5.304356
 20
75.908404
 30
0.0
 10
6.132357
 20
75.908404
 30
0.0
  0
SPLINE
  5
14e
100
AcDbEntity
  8
Enclosure_side_fasteners
 62
7
100
AcDbSpline
 70
8
 71
3
 72
8
 73
4
 74
0
 40
0
 40
0
 40
0
 40
0
 40
1
 40
1
 40
1
 40
1
 10
6.132357
 20
75.908404
 30
0.0
 10
6.960358
 20
75.908404
 30
0.0
 10
7.631754
 20
76.579312
 30
0.0
 10
7.632356
 20
77.407313
 30
0.0
  0
LINE
  5
14f
100
AcDbEntity
  8
Enclosure_side_fasteners
 62
7
100
AcDbLine
 10
7.632356
 20
77.407313
 30
0.0
 11
7.632356
 21
77.407313
 31
0.0
  0
SPLINE
  5
150
100
AcDbEntity
  8
Enclosure_side_fasteners
 62
7
100
AcDbSpline
 70
8
 71
3
 72
8
 73
4
 74
0
 40
0
 40
0
 40
0
 40
0
 40
1
 40
1
 40
1
 40
1
 10
7.632356
 20
7.957312
 30
0.0
 10
7.631754
 20
8.785313
 30
0.0
 10
6.960358
 20
9.456221
 30
0.0
 10
6.132357
 20
9.456221
 30
0.0
  0
SPLINE
  5
151
100
AcDbEntity
  8
Enclosure_side_fasteners
 62
7
100
AcDbSpline
 70
8
 71
3
 72
8
 73
4
 74
0
 40
0
 40
0
 40
0
 40
0
 40
1
 40
1
 40
1
 40
1
 10
6.132357
 20
9.456221
 30
0.0
 10
5.304356
 20
9.456221
 30
0.0
 10
4.632959
 20
8.785313
 30
0.0
 10
4.632357
 20
7.957312
 30
0.0
  0
SPLINE
  5
152
100
AcDbEntity
  8
Enclosure_side_fasteners
 62
7
100
AcDbSpline
 70
8
 71
3
 72
8
 73
4
 74
0
 40
0
 40
0
 40
0
 40
0
 40
1
 40
1
 40
1
 40
1
 10
4.632357
 20
7.957312
 30
0.0
 10
4.632959
 20
7.129311
 30
0.0
 10
5.304356
 20
6.458403
 30
0.0
 10
6.132357
 20
6.458403
 30
0.0
  0
SPLINE
  5
153
100
AcDbEntity
  8
Enclosure_side_fasteners
 62
7
100
AcDbSpline
 70
8
 71
3
 72
8
 73
4
 74
0
 40
0
 40
0
 40
0
 40
0
 40
1
 40
1
 40
1
 40
1
 10
6.132357
 20
6.458403
 30
0.0
 10
6.960358
 20
6.458403
 30
0.0
 10
7.631754
 20
7.129311
 30
0.0
 10
7.632356
 20
7.957312
 30
0.0
  0
LINE
  5
154
100
AcDbEntity
  8
Enclosure_side_fasteners
 62
7
100
AcDbLine
 10
7.632356
 20
7.957312
 30
0.0
 11
7.632356
 21
7.957312
 31
0.0
  0
SPLINE
  5
155
100
AcDbEntity
  8
Enclosure_side_fasteners
 62
7
100
AcDbSpline
 70
8
 71
3
 72
8
 73
4
 74
0
 40
0
 40
0
 40
0
 40
0
 40
1
 40
1
 40
1
 40
1
 10
8.632357
 20
7.957312
 30
0.0
 10
8.632357
 20
8.850476
 30
0.0
 10
8.155860
 20
9.675794
 30
0.0
 10
7.382357
 20
10.122376
 30
0.0
  0
SPLINE
  5
156
100
AcDbEntity
  8
Enclosure_side_fasteners
 62
7
100
AcDbSpline
 70
8
 71
3
 72
8
 73
4
 74
0
 40
0
 40
0
 40
0
 40
0
 40
1
 40
1
 40
1
 40
1
 10
7.382357
 20
10.122376
 30
0.0
 10
6.608854
 20
10.568958
 30
0.0
 10
5.655859
 20
10.568958
 30
0.0
 10
4.882356
 20
10.122376
 30
0.0
  0
SPLINE
  5
157
100
AcDbEntity
  8
Enclosure_side_fasteners
 62
7
100
AcDbSpline
 70
8
 71
3
 72
8
 73
4
 74
0
 40
0
 40
0
 40
0
 40
0
 40
1
 40
1
 40
1
 40
1
 10
4.882356
 20
10.122376
 30
0.0
 10
4.108854
 20
9.675794
 30
0.0
 10
3.632356
 20
8.850476
 30
0.0
 10
3.632356
 20
7.957312
 30
0.0
  0
SPLINE
  5
158
100
AcDbEntity
  8
Enclosure_side_fasteners
 62
7
100
AcDbSpline
 70
8
 71
3
 72
8
 73
4
 74
0
 40
0
 40
0
 40
0
 40
0
 40
1
 40
1
 40
1
 40
1
 10
3.632356
 20
7.957312
 30
0.0
 10
3.632356
 20
7.064148
 30
0.0
 10
4.108854
 20
6.238830
 30
0.0
 10
4.882356
 20
5.792248
 30
0.0
  0
SPLINE
  5
159
100
AcDbEntity
  8
Enclosure_side_fasteners
 62
7
100
AcDbSpline
 70
8
 71
3
 72
8
 73
4
 74
0
 40
0
 40
0
 40
0
 40
0
 40
1
 40
1
 40
1
 40
1
 10
4.882356
 20
5.792248
 30
0.0
 10
5.655859
 20
5.345666
 30
0.0
 10
6.608854
 20
5.345666
 30
0.0
 10
7.382357
 20
5.792248
 30
0.0
  0
SPLINE
  5
15a
100
AcDbEntity
  8
Enclosure_side_fasteners
 62
7
100
AcDbSpline
 70
8
 71
3
 72
8
 73
4
 74
0
 40
0
 40
0
 40
0
 40
0
 40
1
 40
1
 40
1
 40
1
 10
7.382357
 20
5.792248
 30
0.0
 10
8.155860
 20
6.238830
 30
0.0
 10
8.632357
 20
7.064148
 30
0.0
 10
8.632357
 20
7.957312
 30
0.0
  0
LINE
  5
15b
100
AcDbEntity
  8
Enclosure_side_fasteners
 62
7
100
AcDbLine
 10
8.632357
 20
7.957312
 30
0.0
 11
8.632357
 21
7.957312
 31
0.0
  0
SPLINE
  5
15c
100
AcDbEntity
  8
Enclosure_side_fasteners
 62
7
100
AcDbSpline
 70
8
 71
3
 72
8
 73
4
 74
0
 40
0
 40
0
 40
0
 40
0
 40
1
 40
1
 40
1
 40
1
 10
442.632374
 20
77.407313
 30
0.0
 10
442.632374
 20
78.300480
 30
0.0
 10
442.155875
 20
79.125800
 30
0.0
 10
441.382369
 20
79.572384
 30
0.0
  0
SPLINE
  5
15d
100
AcDbEntity
  8
Enclosure_side_fasteners
 62
7
100
AcDbSpline
 70
8
 71
3
 72
8
 73
4
 74
0
 40
0
 40
0
 40
0
 40
0
 40
1
 40
1
 40
1
 40
1
 10
441.382369
 20
79.572384
 30
0.0
 10
440.608864
 20
80.018967
 30
0.0
 10
439.655866
 20
80.018967
 30
0.0
 10
438.882361
 20
79.572384
 30
0.0
  0
SPLINE
  5
15e
100
AcDbEntity
  8
Enclosure_side_fasteners
 62
7
100
AcDbSpline
 70
8
 71
3
 72
8
 73
4
 74
0
 40
0
 40
0
 40
0
 40
0
 40
1
 40
1
 40
1
 40
1
 10
438.882361
 20
79.572384
 30
0.0
 10
438.108856
 20
79.125800
 30
0.0
 10
437.632357
 20
78.300480
 30
0.0
 10
437.632357
 20
77.407313
 30
0.0
  0
SPLINE
  5
15f
100
AcDbEntity
  8
Enclosure_side_fasteners
 62
7
100
AcDbSpline
 70
8
 71
3
 72
8
 73
4
 74
0
 40
0
 40
0
 40
0
 40
0
 40
1
 40
1
 40
1
 40
1
 10
437.632357
 20
77.407313
 30
0.0
 10
437.632357
 20
76.514146
 30
0.0
 10
438.108856
 20
75.688826
 30
0.0
 10
438.882361
 20
75.242243
 30
0.0
  0
SPLINE
  5
160
100
AcDbEntity
  8
Enclosure_side_fasteners
 62
7
100
AcDbSpline
 70
8
 71
3
 72
8
 73
4
 74
0
 40
0
 40
0
 40
0
 40
0
 40
1
 40
1
 40
1
 40
1
 10
438.882361
 20
75.242243
 30
0.0
 10
439.655866
 20
74.795659
 30
0.0
 10
440.608864
 20
74.795659
 30
0.0
 10
441.382369
 20
75.242243
 30
0.0
  0
SPLINE
  5
161
100
AcDbEntity
  8
Enclosure_side_fasteners
 62
7
100
AcDbSpline
 70
8
 71
3
 72
8
 73
4
 74
0
 40
0
 40
0
 40
0
 40
0
 40
1
 40
1
 40
1
 40
1
 10
441.382369
 20
75.242243
 30
0.0
 10
442.155875
 20
75.688826
 30
0.0
 10
442.632374
 20
76.514146
 30
0.0
 10
442.632374
 20
77.407313
 30
0.0
  0
LINE
  5
162
100
AcDbEntity
  8
Enclosure_side_fasteners
 62
7
100
AcDbLine
 10
442.632374
 20
77.407313
 30
0.0
 11
442.632374
 21
77.407313
 31
0.0
  0
SPLINE
  5
163
100
AcDbEntity
  8
Enclosure_side_fasteners
 62
7
100
AcDbSpline
 70
8
 71
3
 72
8
 73
4
 74
0
 40
0
 40
0
 40
0
 40
0
 40
1
 40
1
 40
1
 40
1
 10
441.632381
 20
77.407313
 30
0.0
 10
441.632381
 20
77.943212
 30
0.0
 10
441.346482
 20
78.438404
 30
0.0
 10
440.882380
 20
78.706353
 30
0.0
  0
SPLINE
  5
164
100
AcDbEntity
  8
Enclosure_side_fasteners
 62
7
100
AcDbSpline
 70
8
 71
3
 72
8
 73
4
 74
0
 40
0
 40
0
 40
0
 40
0
 40
1
 40
1
 40
1
 40
1
 10
440.882380
 20
78.706353
 30
0.0
 10
440.418277
 20
78.974303
 30
0.0
 10
439.846480
 20
78.974303
 30
0.0
 10
439.382377
 20
78.706353
 30
0.0
  0
SPLINE
  5
165
100
AcDbEntity
  8
Enclosure_side_fasteners
 62
7
100
AcDbSpline
 70
8
 71
3
 72
8
 73
4
 74
0
 40
0
 40
0
 40
0
 40
0
 40
1
 40
1
 40
1
 40
1
 10
439.382377
 20
78.706353
 30
0.0
 10
438.918275
 20
78.438404
 30
0.0
 10
438.632376
 20
77.943212
 30
0.0
 10
438.632376
 20
77.407313
 30
0.0
  0
SPLINE
  5
166
100
AcDbEntity
  8
Enclosure_side_fasteners
 62
7
100
AcDbSpline
 70
8
 71
3
 72
8
 73
4
 74
0
 40
0
 40
0
 40
0
 40
0
 40
1
 40
1
 40
1
 40
1
 10
438.632376
 20
77.407313
 30
0.0
 10
438.632376
 20
76.871414
 30
0.0
 10
438.918275
 20
76.376223
 30
0.0
 10
439.382377
 20
76.108273
 30
0.0
  0
SPLINE
  5
167
100
AcDbEntity
  8
Enclosure_side_fasteners
 62
7
100
AcDbSpline
 70
8
 71
3
 72
8
 73
4
 74
0
 40
0
 40
0
 40
0
 40
0
 40
1
 40
1
 40
1
 40
1
 10
439.382377
 20
76.108273
 30
0.0
 10
439.846480
 20
75.840323
 30
0.0
 10
440.418277
 20
75.840323
 30
0.0
 10
440.882380
 20
76.108273
 30
0.0
  0
SPLINE
  5
168
100
AcDbEntity
  8
Enclosure_side_fasteners
 62
7
100
AcDbSpline
 70
8
 71
3
 72
8
 73
4
 74
0
 40
0
 40
0
 40
0
 40
0
 40
1
 40
1
 40
1
 40
1
 10
440.882380
 20
76.108273
 30
0.0
 10
441.346482
 20
76.376223
 30
0.0
 10
441.632381
 20
76.871414
 30
0.0
 10
441.632381
 20
77.407313
 30
0.0
  0
LINE
  5
169
100
AcDbEntity
  8
Enclosure_side_fasteners
 62
7
100
AcDbLine
 10
441.632381
 20
77.407313
 30
0.0
 11
441.632381
 21
77.407313
 31
0.0
  0
SPLINE
  5
16a
100
AcDbEntity
  8
Enclosure_side_fasteners
 62
7
100
AcDbSpline
 70
8
 71
3
 72
8
 73
4
 74
0
 40
0
 40
0
 40
0
 40
0
 40
1
 40
1
 40
1
 40
1
 10
441.632381
 20
7.957312
 30
0.0
 10
441.632381
 20
8.493211
 30
0.0
 10
441.346482
 20
8.988403
 30
0.0
 10
440.882380
 20
9.256352
 30
0.0
  0
SPLINE
  5
16b
100
AcDbEntity
  8
Enclosure_side_fasteners
 62
7
100
AcDbSpline
 70
8
 71
3
 72
8
 73
4
 74
0
 40
0
 40
0
 40
0
 40
0
 40
1
 40
1
 40
1
 40
1
 10
440.882380
 20
9.256352
 30
0.0
 10
440.418277
 20
9.524302
 30
0.0
 10
439.846480
 20
9.524302
 30
0.0
 10
439.382377
 20
9.256352
 30
0.0
  0
SPLINE
  5
16c
100
AcDbEntity
  8
Enclosure_side_fasteners
 62
7
100
AcDbSpline
 70
8
 71
3
 72
8
 73
4
 74
0
 40
0
 40
0
 40
0
 40
0
 40
1
 40
1
 40
1
 40
1
 10
439.382377
 20
9.256352
 30
0.0
 10
438.918275
 20
8.988403
 30
0.0
 10
438.632376
 20
8.493211
 30
0.0
 10
438.632376
 20
7.957312
 30
0.0
  0
SPLINE
  5
16d
100
AcDbEntity
  8
Enclosure_side_fasteners
 62
7
100
AcDbSpline
 70
8
 71
3
 72
8
 73
4
 74
0
 40
0
 40
0
 40
0
 40
0
 40
1
 40
1
 40
1
 40
1
 10
438.632376
 20
7.957312
 30
0.0
 10
438.632376
 20
7.421413
 30
0.0
 10
438.918275
 20
6.926222
 30
0.0
 10
439.382377
 20
6.658272
 30
0.0
  0
SPLINE
  5
16e
100
AcDbEntity
  8
Enclosure_side_fasteners
 62
7
100
AcDbSpline
 70
8
 71
3
 72
8
 73
4
 74
0
 40
0
 40
0
 40
0
 40
0
 40
1
 40
1
 40
1
 40
1
 10
439.382377
 20
6.658272
 30
0.0
 10
439.846480
 20
6.390323
 30
0.0
 10
440.418277
 20
6.390323
 30
0.0
 10
440.882380
 20
6.658272
 30
0.0
  0
SPLINE
  5
16f
100
AcDbEntity
  8
Enclosure_side_fasteners
 62
7
100
AcDbSpline
 70
8
 71
3
 72
8
 73
4
 74
0
 40
0
 40
0
 40
0
 40
0
 40
1
 40
1
 40
1
 40
1
 10
440.882380
 20
6.658272
 30
0.0
 10
441.346482
 20
6.926222
 30
0.0
 10
441.632381
 20
7.421413
 30
0.0
 10
441.632381
 20
7.957312
 30
0.0
  0
LINE
  5
170
100
AcDbEntity
  8
Enclosure_side_fasteners
 62
7
100
AcDbLine
 10
441.632381
 20
7.957312
 30
0.0
 11
441.632381
 21
7.957312
 31
0.0
  0
SPLINE
  5
171
100
AcDbEntity
  8
Enclosure_side_fasteners
 62
7
100
AcDbSpline
 70
8
 71
3
 72
8
 73
4
 74
0
 40
0
 40
0
 40
0
 40
0
 40
1
 40
1
 40
1
 40
1
 10
442.632374
 20
7.957312
 30
0.0
 10
442.632374
 20
8.850479
 30
0.0
 10
442.155875
 20
9.675799
 30
0.0
 10
441.382369
 20
10.122383
 30
0.0
  0
SPLINE
  5
172
100
AcDbEntity
  8
Enclosure_side_fasteners
 62
7
100
AcDbSpline
 70
8
 71
3
 72
8
 73
4
 74
0
 40
0
 40
0
 40
0
 40
0
 40
1
 40
1
 40
1
 40
1
 10
441.382369
 20
10.122383
 30
0.0
 10
440.608864
 20
10.568966
 30
0.0
 10
439.655866
 20
10.568966
 30
0.0
 10
438.882361
 20
10.122383
 30
0.0
  0
SPLINE
  5
173
100
AcDbEntity
  8
Enclosure_side_fasteners
 62
7
100
AcDbSpline
 70
8
 71
3
 72
8
 73
4
 74
0
 40
0
 40
0
 40
0
 40
0
 40
1
 40
1
 40
1
 40
1
 10
438.882361
 20
10.122383
 30
0.0
 10
438.108856
 20
9.675799
 30
0.0
 10
437.632357
 20
8.850479
 30
0.0
 10
437.632357
 20
7.957312
 30
0.0
  0
SPLINE
  5
174
100
AcDbEntity
  8
Enclosure_side_fasteners
 62
7
100
AcDbSpline
 70
8
 71
3
 72
8
 73
4
 74
0
 40
0
 40
0
 40
0
 40
0
 40
1
 40
1
 40
1
 40
1
 10
437.632357
 20
7.957312
 30
0.0
 10
437.632357
 20
7.064145
 30
0.0
 10
438.108856
 20
6.238825
 30
0.0
 10
438.882361
 20
5.792242
 30
0.0
  0
SPLINE
  5
175
100
AcDbEntity
  8
Enclosure_side_fasteners
 62
7
100
AcDbSpline
 70
8
 71
3
 72
8
 73
4
 74
0
 40
0
 40
0
 40
0
 40
0
 40
1
 40
1
 40
1
 40
1
 10
438.882361
 20
5.792242
 30
0.0
 10
439.655866
 20
5.345658
 30
0.0
 10
440.608864
 20
5.345658
 30
0.0
 10
441.382369
 20
5.792242
 30
0.0
  0
SPLINE
  5
176
100
AcDbEntity
  8
Enclosure_side_fasteners
 62
7
100
AcDbSpline
 70
8
 71
3
 72
8
 73
4
 74
0
 40
0
 40
0
 40
0
 40
0
 40
1
 40
1
 40
1
 40
1
 10
441.382369
 20
5.792242
 30
0.0
 10
442.155875
 20
6.238825
 30
0.0
 10
442.632374
 20
7.064145
 30
0.0
 10
442.632374
 20
7.957312
 30
0.0
  0
LINE
  5
177
100
AcDbEntity
  8
Enclosure_side_fasteners
 62
7
100
AcDbLine
 10
442.632374
 20
7.957312
 30
0.0
 11
442.632374
 21
7.957312
 31
0.0
  0
ENDSEC
  0
SECTION
  2
OBJECTS
  0
DICTIONARY
  5
C
330
0
100
AcDbDictionary
  3
ACAD_GROUP
350
D
  3
ACAD_MLINESTYLE
350
17
  0
DICTIONARY
  5
D
330
C
100
AcDbDictionary
  0
DICTIONARY
  5
1A
330
C
100
AcDbDictionary
  0
DICTIONARY
  5
17
330
C
100
AcDbDictionary
  3
STANDARD
350
18
  0
DICTIONARY
  5
19
330
C
100
AcDbDictionary
  0
ENDSEC
  0
EOF
