  0
SECTION
  2
HEADER
  9
$ACADVER
  1
AC1014
  9
$HANDSEED
  5
FFFF
  9
$INSUNITS
 70
     4
  9
$MEASUREMENT
 70
     1
  0
ENDSEC
  0
SECTION
  2
TABLES
  0
TABLE
  2
VPORT
  5
8
330
0
100
AcDbSymbolTable
 70
     4
  0
VPORT
  5
2E
330
8
100
AcDbSymbolTableRecord
100
AcDbViewportTableRecord
  2
*ACTIVE
 70
     0
 10
0.0
 20
0.0
 11
1.0
 21
1.0
 12
210.0
 22
148.5
 13
0.0
 23
0.0
 14
10.0
 24
10.0
 15
10.0
 25
10.0
 16
0.0
 26
0.0
 36
1.0
 17
0.0
 27
0.0
 37
0.0
 40
341.0
 41
1.24
 42
50.0
 43
0.0
 44
0.0
 50
0.0
 51
0.0
 71
     0
 72
   100
 73
     1
 74
     3
 75
     0
 76
     0
 77
     0
 78
     0
  0
ENDTAB
  0
TABLE
  2
LTYPE
  5
5
330
0
100
AcDbSymbolTable
 70
     1
  0
LTYPE
  5
14
330
5
100
AcDbSymbolTableRecord
100
AcDbLinetypeTableRecord
  2
BYBLOCK
 70
     0
  3

 72
    65
 73
     0
 40
0.0
  0
LTYPE
  5
15
330
5
100
AcDbSymbolTableRecord
100
AcDbLinetypeTableRecord
  2
BYLAYER
 70
     0
  3

 72
    65
 73
     0
 40
0.0
  0
LTYPE
  5
16
330
5
100
AcDbSymbolTableRecord
100
AcDbLinetypeTableRecord
  2
CONTINUOUS
 70
     0
  3
Solid line
 72
    65
 73
     0
 40
0.0
  0
ENDTAB
  0
TABLE
  2
LAYER
  5
2
100
AcDbSymbolTable
 70
4
  0
LAYER
  5
50
100
AcDbSymbolTableRecord
100
AcDbLayerTableRecord
  2
0
 70
0
  6
CONTINUOUS
  0
LAYER
  5
51
100
AcDbSymbolTableRecord
100
AcDbLayerTableRecord
  2
Custom_cutouts
 70
0
  6
CONTINUOUS
  0
LAYER
  5
52
100
AcDbSymbolTableRecord
100
AcDbLayerTableRecord
  2
Enclosure_side_fasteners
 70
0
  6
CONTINUOUS
  0
LAYER
  5
53
100
AcDbSymbolTableRecord
100
AcDbLayerTableRecord
  2
Rack_ear_holes
 70
0
  6
CONTINUOUS
  0
ENDTAB
  0
TABLE
  2
STYLE
  5
3
330
0
100
AcDbSymbolTable
 70
     1
  0
STYLE
  5
11
330
3
100
AcDbSymbolTableRecord
100
AcDbTextStyleTableRecord
  2
STANDARD
 70
     0
 40
0.0
 41
1.0
 50
0.0
 71
     0
 42
2.5
  3
txt
  4

  0
ENDTAB
  0
TABLE
  2
VIEW
  5
6
330
0
100
AcDbSymbolTable
 70
     0
  0
ENDTAB
  0
TABLE
  2
UCS
  5
7
330
0
100
AcDbSymbolTable
 70
     0
  0
ENDTAB
  0
TABLE
  2
APPID
  5
9
330
0
100
AcDbSymbolTable
 70
     2
  0
APPID
  5
12
330
9
100
AcDbSymbolTableRecord
100
AcDbRegAppTableRecord
  2
ACAD
 70
     0
  0
ENDTAB
  0
TABLE
  2
DIMSTYLE
  5
A
330
0
100
AcDbSymbolTable
 70
     1
  0
DIMSTYLE
105
27
330
A
100
AcDbSymbolTableRecord
100
AcDbDimStyleTableRecord
  2
ISO-25
 70
     0
  3

  4

  5

  6

  7

 40
1.0
 41
2.5
 42
0.625
 43
3.75
 44
1.25
 45
0.0
 46
0.0
 47
0.0
 48
0.0
140
2.5
141
2.5
142
0.0
143
0.03937007874016
144
1.0
145
0.0
146
1.0
147
0.625
 71
     0
 72
     0
 73
     0
 74
     0
 75
     0
 76
     0
 77
     1
 78
     8
170
     0
171
     3
172
     1
173
     0
174
     0
175
     0
176
     0
177
     0
178
     0
270
     2
271
     2
272
     2
273
     2
274
     3
340
11
275
     0
280
     0
281
     0
282
     0
283
     0
284
     8
285
     0
286
     0
287
     3
288
     0
  0
ENDTAB
  0
TABLE
  2
BLOCK_RECORD
  5
1
330
0
100
AcDbSymbolTable
 70
     1
  0
BLOCK_RECORD
  5
1F
330
1
100
AcDbSymbolTableRecord
100
AcDbBlockTableRecord
  2
*MODEL_SPACE
  0
BLOCK_RECORD
  5
1B
330
1
100
AcDbSymbolTableRecord
100
AcDbBlockTableRecord
  2
*PAPER_SPACE
  0
ENDTAB
  0
ENDSEC
  0
SECTION
  2
BLOCKS
  0
BLOCK
  5
20
330
1F
100
AcDbEntity
  8
0
100
AcDbBlockBegin
  2
*MODEL_SPACE
 70
     0
 10
0.0
 20
0.0
 30
0.0
  3
*MODEL_SPACE
  1

  0
ENDBLK
  5
21
330
1F
100
AcDbEntity
  8
0
100
AcDbBlockEnd
  0
BLOCK
  5
1C
330
1B
100
AcDbEntity
 67
     1
  8
0
100
AcDbBlockBegin
  2
*PAPER_SPACE
  1

  0
ENDBLK
  5
1D
330
1B
100
AcDbEntity
 67
     1
  8
0
100
AcDbBlockEnd
  0
ENDSEC
  0
SECTION
  2
ENTITIES
  0
SPLINE
  5
100
100
AcDbEntity
  8
Custom_cutouts
 62
7
100
AcDbSpline
 70
8
 71
3
 72
8
 73
4
 74
0
 40
0
 40
0
 40
0
 40
0
 40
1
 40
1
 40
1
 40
1
 10
67.532164
 20
25.988051
 30
0.0
 10
67.529745
 20
32.668985
 30
0.0
 10
62.113099
 20
38.083669
 30
0.0
 10
55.432165
 20
38.083669
 30
0.0
  0
SPLINE
  5
101
100
AcDbEntity
  8
Custom_cutouts
 62
7
100
AcDbSpline
 70
8
 71
3
 72
8
 73
4
 74
0
 40
0
 40
0
 40
0
 40
0
 40
1
 40
1
 40
1
 40
1
 10
55.432165
 20
38.083669
 30
0.0
 10
48.751230
 20
38.083669
 30
0.0
 10
43.334585
 20
32.668985
 30
0.0
 10
43.332165
 20
25.988051
 30
0.0
  0
SPLINE
  5
102
100
AcDbEntity
  8
Custom_cutouts
 62
7
100
AcDbSpline
 70
8
 71
3
 72
8
 73
4
 74
0
 40
0
 40
0
 40
0
 40
0
 40
1
 40
1
 40
1
 40
1
 10
43.332165
 20
25.988051
 30
0.0
 10
43.334585
 20
19.307117
 30
0.0
 10
48.751230
 20
13.892433
 30
0.0
 10
55.432165
 20
13.892433
 30
0.0
  0
SPLINE
  5
103
100
AcDbEntity
  8
Custom_cutouts
 62
7
100
AcDbSpline
 70
8
 71
3
 72
8
 73
4
 74
0
 40
0
 40
0
 40
0
 40
0
 40
1
 40
1
 40
1
 40
1
 10
55.432165
 20
13.892433
 30
0.0
 10
62.113099
 20
13.892433
 30
0.0
 10
67.529745
 20
19.307117
 30
0.0
 10
67.532164
 20
25.988051
 30
0.0
  0
LINE
  5
104
100
AcDbEntity
  8
Custom_cutouts
 62
7
100
AcDbLine
 10
67.532164
 20
25.988051
 30
0.0
 11
67.532164
 21
25.988051
 31
0.0
  0
SPLINE
  5
105
100
AcDbEntity
  8
Custom_cutouts
 62
7
100
AcDbSpline
 70
8
 71
3
 72
8
 73
4
 74
0
 40
0
 40
0
 40
0
 40
0
 40
1
 40
1
 40
1
 40
1
 10
413.832199
 20
19.182428
 30
0.0
 10
413.832199
 20
19.932690
 30
0.0
 10
413.431939
 20
20.625960
 30
0.0
 10
412.782194
 20
21.001091
 30
0.0
  0
SPLINE
  5
106
100
AcDbEntity
  8
Custom_cutouts
 62
7
100
AcDbSpline
 70
8
 71
3
 72
8
 73
4
 74
0
 40
0
 40
0
 40
0
 40
0
 40
1
 40
1
 40
1
 40
1
 10
412.782194
 20
21.001091
 30
0.0
 10
412.132448
 20
21.376222
 30
0.0
 10
411.331928
 20
21.376222
 30
0.0
 10
410.682182
 20
21.001091
 30
0.0
  0
SPLINE
  5
107
100
AcDbEntity
  8
Custom_cutouts
 62
7
100
AcDbSpline
 70
8
 71
3
 72
8
 73
4
 74
0
 40
0
 40
0
 40
0
 40
0
 40
1
 40
1
 40
1
 40
1
 10
410.682182
 20
21.001091
 30
0.0
 10
410.032437
 20
20.625960
 30
0.0
 10
409.632177
 20
19.932690
 30
0.0
 10
409.632177
 20
19.182428
 30
0.0
  0
SPLINE
  5
108
100
AcDbEntity
  8
Custom_cutouts
 62
7
100
AcDbSpline
 70
8
 71
3
 72
8
 73
4
 74
0
 40
0
 40
0
 40
0
 40
0
 40
1
 40
1
 40
1
 40
1
 10
409.632177
 20
19.182428
 30
0.0
 10
409.632177
 20
18.432166
 30
0.0
 10
410.032437
 20
17.738896
 30
0.0
 10
410.682182
 20
17.363765
 30
0.0
  0
SPLINE
  5
109
100
AcDbEntity
  8
Custom_cutouts
 62
7
100
AcDbSpline
 70
8
 71
3
 72
8
 73
4
 74
0
 40
0
 40
0
 40
0
 40
0
 40
1
 40
1
 40
1
 40
1
 10
410.682182
 20
17.363765
 30
0.0
 10
411.331928
 20
16.988634
 30
0.0
 10
412.132448
 20
16.988634
 30
0.0
 10
412.782194
 20
17.363765
 30
0.0
  0
SPLINE
  5
10a
100
AcDbEntity
  8
Custom_cutouts
 62
7
100
AcDbSpline
 70
8
 71
3
 72
8
 73
4
 74
0
 40
0
 40
0
 40
0
 40
0
 40
1
 40
1
 40
1
 40
1
 10
412.782194
 20
17.363765
 30
0.0
 10
413.431939
 20
17.738896
 30
0.0
 10
413.832199
 20
18.432166
 30
0.0
 10
413.832199
 20
19.182428
 30
0.0
  0
LINE
  5
10b
100
AcDbEntity
  8
Custom_cutouts
 62
7
100
AcDbLine
 10
413.832199
 20
19.182428
 30
0.0
 11
413.832199
 21
19.182428
 31
0.0
  0
SPLINE
  5
10c
100
AcDbEntity
  8
Custom_cutouts
 62
7
100
AcDbSpline
 70
8
 71
3
 72
8
 73
4
 74
0
 40
0
 40
0
 40
0
 40
0
 40
1
 40
1
 40
1
 40
1
 10
151.577172
 20
25.884655
 30
0.0
 10
151.576807
 20
26.795667
 30
0.0
 10
150.838183
 20
27.533994
 30
0.0
 10
149.927172
 20
27.533994
 30
0.0
  0
SPLINE
  5
10d
100
AcDbEntity
  8
Custom_cutouts
 62
7
100
AcDbSpline
 70
8
 71
3
 72
8
 73
4
 74
0
 40
0
 40
0
 40
0
 40
0
 40
1
 40
1
 40
1
 40
1
 10
149.927172
 20
27.533994
 30
0.0
 10
149.016160
 20
27.533994
 30
0.0
 10
148.277536
 20
26.795667
 30
0.0
 10
148.277172
 20
25.884655
 30
0.0
  0
SPLINE
  5
10e
100
AcDbEntity
  8
Custom_cutouts
 62
7
100
AcDbSpline
 70
8
 71
3
 72
8
 73
4
 74
0
 40
0
 40
0
 40
0
 40
0
 40
1
 40
1
 40
1
 40
1
 10
148.277172
 20
25.884655
 30
0.0
 10
148.277536
 20
24.973643
 30
0.0
 10
149.016160
 20
24.235315
 30
0.0
 10
149.927172
 20
24.235315
 30
0.0
  0
SPLINE
  5
10f
100
AcDbEntity
  8
Custom_cutouts
 62
7
100
AcDbSpline
 70
8
 71
3
 72
8
 73
4
 74
0
 40
0
 40
0
 40
0
 40
0
 40
1
 40
1
 40
1
 40
1
 10
149.927172
 20
24.235315
 30
0.0
 10
150.838183
 20
24.235315
 30
0.0
 10
151.576807
 20
24.973643
 30
0.0
 10
151.577172
 20
25.884655
 30
0.0
  0
LINE
  5
110
100
AcDbEntity
  8
Custom_cutouts
 62
7
100
AcDbLine
 10
151.577172
 20
25.884655
 30
0.0
 11
151.577172
 21
25.884655
 31
0.0
  0
SPLINE
  5
111
100
AcDbEntity
  8
Custom_cutouts
 62
7
100
AcDbSpline
 70
8
 71
3
 72
8
 73
4
 74
0
 40
0
 40
0
 40
0
 40
0
 40
1
 40
1
 40
1
 40
1
 10
66.532166
 20
56.895369
 30
0.0
 10
66.532166
 20
57.466994
 30
0.0
 10
66.227208
 20
57.995197
 30
0.0
 10
65.732166
 20
58.281010
 30
0.0
  0
SPLINE
  5
112
100
AcDbEntity
  8
Custom_cutouts
 62
7
100
AcDbSpline
 70
8
 71
3
 72
8
 73
4
 74
0
 40
0
 40
0
 40
0
 40
0
 40
1
 40
1
 40
1
 40
1
 10
65.732166
 20
58.281010
 30
0.0
 10
65.237124
 20
58.566822
 30
0.0
 10
64.627208
 20
58.566822
 30
0.0
 10
64.132166
 20
58.281010
 30
0.0
  0
SPLINE
  5
113
100
AcDbEntity
  8
Custom_cutouts
 62
7
100
AcDbSpline
 70
8
 71
3
 72
8
 73
4
 74
0
 40
0
 40
0
 40
0
 40
0
 40
1
 40
1
 40
1
 40
1
 10
64.132166
 20
58.281010
 30
0.0
 10
63.637124
 20
57.995197
 30
0.0
 10
63.332166
 20
57.466994
 30
0.0
 10
63.332166
 20
56.895369
 30
0.0
  0
SPLINE
  5
114
100
AcDbEntity
  8
Custom_cutouts
 62
7
100
AcDbSpline
 70
8
 71
3
 72
8
 73
4
 74
0
 40
0
 40
0
 40
0
 40
0
 40
1
 40
1
 40
1
 40
1
 10
63.332166
 20
56.895369
 30
0.0
 10
63.332166
 20
56.323744
 30
0.0
 10
63.637124
 20
55.795540
 30
0.0
 10
64.132166
 20
55.509728
 30
0.0
  0
SPLINE
  5
115
100
AcDbEntity
  8
Custom_cutouts
 62
7
100
AcDbSpline
 70
8
 71
3
 72
8
 73
4
 74
0
 40
0
 40
0
 40
0
 40
0
 40
1
 40
1
 40
1
 40
1
 10
64.132166
 20
55.509728
 30
0.0
 10
64.627208
 20
55.223915
 30
0.0
 10
65.237124
 20
55.223915
 30
0.0
 10
65.732166
 20
55.509728
 30
0.0
  0
SPLINE
  5
116
100
AcDbEntity
  8
Custom_cutouts
 62
7
100
AcDbSpline
 70
8
 71
3
 72
8
 73
4
 74
0
 40
0
 40
0
 40
0
 40
0
 40
1
 40
1
 40
1
 40
1
 10
65.732166
 20
55.509728
 30
0.0
 10
66.227208
 20
55.795540
 30
0.0
 10
66.532166
 20
56.323744
 30
0.0
 10
66.532166
 20
56.895369
 30
0.0
  0
LINE
  5
117
100
AcDbEntity
  8
Custom_cutouts
 62
7
100
AcDbLine
 10
66.532166
 20
56.895369
 30
0.0
 11
66.532166
 21
56.895369
 31
0.0
  0
LINE
  5
118
100
AcDbEntity
  8
Custom_cutouts
 62
7
100
AcDbLine
 10
126.586200
 20
69.015173
 30
0.0
 11
126.586200
 21
65.632739
 31
0.0
  0
SPLINE
  5
119
100
AcDbEntity
  8
Custom_cutouts
 62
7
100
AcDbSpline
 70
8
 71
3
 72
8
 73
4
 74
0
 40
0
 40
0
 40
0
 40
0
 40
1
 40
1
 40
1
 40
1
 10
126.586171
 20
69.015170
 30
0.0
 10
125.823659
 20
70.307809
 30
0.0
 10
124.290438
 20
70.930326
 30
0.0
 10
122.842628
 20
70.535121
 30
0.0
  0
SPLINE
  5
11a
100
AcDbEntity
  8
Custom_cutouts
 62
7
100
AcDbSpline
 70
8
 71
3
 72
8
 73
4
 74
0
 40
0
 40
0
 40
0
 40
0
 40
1
 40
1
 40
1
 40
1
 10
122.842628
 20
70.535121
 30
0.0
 10
121.394819
 20
70.139916
 30
0.0
 10
120.390525
 20
68.824740
 30
0.0
 10
120.390525
 20
67.323960
 30
0.0
  0
SPLINE
  5
11b
100
AcDbEntity
  8
Custom_cutouts
 62
7
100
AcDbSpline
 70
8
 71
3
 72
8
 73
4
 74
0
 40
0
 40
0
 40
0
 40
0
 40
1
 40
1
 40
1
 40
1
 10
120.390525
 20
67.323960
 30
0.0
 10
120.390525
 20
65.823181
 30
0.0
 10
121.394819
 20
64.508004
 30
0.0
 10
122.842628
 20
64.112800
 30
0.0
  0
SPLINE
  5
11c
100
AcDbEntity
  8
Custom_cutouts
 62
7
100
AcDbSpline
 70
8
 71
3
 72
8
 73
4
 74
0
 40
0
 40
0
 40
0
 40
0
 40
1
 40
1
 40
1
 40
1
 10
122.842628
 20
64.112800
 30
0.0
 10
124.290438
 20
63.717595
 30
0.0
 10
125.823659
 20
64.340112
 30
0.0
 10
126.586171
 20
65.632751
 30
0.0
  0
SPLINE
  5
11d
100
AcDbEntity
  8
Custom_cutouts
 62
7
100
AcDbSpline
 70
8
 71
3
 72
8
 73
4
 74
0
 40
0
 40
0
 40
0
 40
0
 40
1
 40
1
 40
1
 40
1
 10
151.111172
 20
69.015170
 30
0.0
 10
150.348659
 20
70.307809
 30
0.0
 10
148.815439
 20
70.930326
 30
0.0
 10
147.367629
 20
70.535121
 30
0.0
  0
SPLINE
  5
11e
100
AcDbEntity
  8
Custom_cutouts
 62
7
100
AcDbSpline
 70
8
 71
3
 72
8
 73
4
 74
0
 40
0
 40
0
 40
0
 40
0
 40
1
 40
1
 40
1
 40
1
 10
147.367629
 20
70.535121
 30
0.0
 10
145.919819
 20
70.139916
 30
0.0
 10
144.915526
 20
68.824740
 30
0.0
 10
144.915526
 20
67.323960
 30
0.0
  0
SPLINE
  5
11f
100
AcDbEntity
  8
Custom_cutouts
 62
7
100
AcDbSpline
 70
8
 71
3
 72
8
 73
4
 74
0
 40
0
 40
0
 40
0
 40
0
 40
1
 40
1
 40
1
 40
1
 10
144.915526
 20
67.323960
 30
0.0
 10
144.915526
 20
65.823181
 30
0.0
 10
145.919819
 20
64.508004
 30
0.0
 10
147.367629
 20
64.112800
 30
0.0
  0
SPLINE
  5
120
100
AcDbEntity
  8
Custom_cutouts
 62
7
100
AcDbSpline
 70
8
 71
3
 72
8
 73
4
 74
0
 40
0
 40
0
 40
0
 40
0
 40
1
 40
1
 40
1
 40
1
 10
147.367629
 20
64.112800
 30
0.0
 10
148.815439
 20
63.717595
 30
0.0
 10
150.348659
 20
64.340112
 30
0.0
 10
151.111172
 20
65.632751
 30
0.0
  0
LINE
  5
121
100
AcDbEntity
  8
Custom_cutouts
 62
7
100
AcDbLine
 10
151.111224
 20
69.015173
 30
0.0
 11
151.111224
 21
65.632739
 31
0.0
  0
SPLINE
  5
122
100
AcDbEntity
  8
Custom_cutouts
 62
7
100
AcDbSpline
 70
8
 71
3
 72
8
 73
4
 74
0
 40
0
 40
0
 40
0
 40
0
 40
1
 40
1
 40
1
 40
1
 10
105.087715
 20
27.853615
 30
0.0
 10
104.145558
 20
30.783834
 30
0.0
 10
101.210269
 20
32.591883
 30
0.0
 10
98.169469
 20
32.115048
 30
0.0
  0
SPLINE
  5
123
100
AcDbEntity
  8
Custom_cutouts
 62
7
100
AcDbSpline
 70
8
 71
3
 72
8
 73
4
 74
0
 40
0
 40
0
 40
0
 40
0
 40
1
 40
1
 40
1
 40
1
 10
98.169469
 20
32.115048
 30
0.0
 10
95.128669
 20
31.638213
 30
0.0
 10
92.887714
 20
29.018463
 30
0.0
 10
92.887714
 20
25.940503
 30
0.0
  0
SPLINE
  5
124
100
AcDbEntity
  8
Custom_cutouts
 62
7
100
AcDbSpline
 70
8
 71
3
 72
8
 73
4
 74
0
 40
0
 40
0
 40
0
 40
0
 40
1
 40
1
 40
1
 40
1
 10
92.887714
 20
25.940503
 30
0.0
 10
92.887714
 20
22.862543
 30
0.0
 10
95.128669
 20
20.242794
 30
0.0
 10
98.169469
 20
19.765958
 30
0.0
  0
SPLINE
  5
125
100
AcDbEntity
  8
Custom_cutouts
 62
7
100
AcDbSpline
 70
8
 71
3
 72
8
 73
4
 74
0
 40
0
 40
0
 40
0
 40
0
 40
1
 40
1
 40
1
 40
1
 10
98.169469
 20
19.765958
 30
0.0
 10
101.210269
 20
19.289123
 30
0.0
 10
104.145558
 20
21.097173
 30
0.0
 10
105.087715
 20
24.027391
 30
0.0
  0
LINE
  5
126
100
AcDbEntity
  8
Custom_cutouts
 62
7
100
AcDbLine
 10
105.087744
 20
27.853491
 30
0.0
 11
105.087744
 21
24.027351
 31
0.0
  0
LINE
  5
127
100
AcDbEntity
  8
Custom_cutouts
 62
7
100
AcDbLine
 10
196.933886
 20
70.201220
 30
0.0
 11
196.933886
 21
63.833308
 31
0.0
  0
SPLINE
  5
128
100
AcDbEntity
  8
Custom_cutouts
 62
7
100
AcDbSpline
 70
8
 71
3
 72
8
 73
4
 74
0
 40
0
 40
0
 40
0
 40
0
 40
1
 40
1
 40
1
 40
1
 10
196.933952
 20
70.201228
 30
0.0
 10
195.464580
 20
73.052229
 30
0.0
 10
192.235052
 20
74.527447
 30
0.0
 10
189.118043
 20
73.771461
 30
0.0
  0
SPLINE
  5
129
100
AcDbEntity
  8
Custom_cutouts
 62
7
100
AcDbSpline
 70
8
 71
3
 72
8
 73
4
 74
0
 40
0
 40
0
 40
0
 40
0
 40
1
 40
1
 40
1
 40
1
 10
189.118043
 20
73.771461
 30
0.0
 10
186.001033
 20
73.015475
 30
0.0
 10
183.806173
 20
70.224650
 30
0.0
 10
183.806173
 20
67.017274
 30
0.0
  0
SPLINE
  5
12a
100
AcDbEntity
  8
Custom_cutouts
 62
7
100
AcDbSpline
 70
8
 71
3
 72
8
 73
4
 74
0
 40
0
 40
0
 40
0
 40
0
 40
1
 40
1
 40
1
 40
1
 10
183.806173
 20
67.017274
 30
0.0
 10
183.806173
 20
63.809898
 30
0.0
 10
186.001033
 20
61.019074
 30
0.0
 10
189.118043
 20
60.263088
 30
0.0
  0
SPLINE
  5
12b
100
AcDbEntity
  8
Custom_cutouts
 62
7
100
AcDbSpline
 70
8
 71
3
 72
8
 73
4
 74
0
 40
0
 40
0
 40
0
 40
0
 40
1
 40
1
 40
1
 40
1
 10
189.118043
 20
60.263088
 30
0.0
 10
192.235052
 20
59.507102
 30
0.0
 10
195.464580
 20
60.982319
 30
0.0
 10
196.933952
 20
63.833320
 30
0.0
  0
SPLINE
  5
12c
100
AcDbEntity
  8
Custom_cutouts
 62
7
100
AcDbSpline
 70
8
 71
3
 72
8
 73
4
 74
0
 40
0
 40
0
 40
0
 40
0
 40
1
 40
1
 40
1
 40
1
 10
413.832199
 20
69.182432
 30
0.0
 10
413.832199
 20
69.932693
 30
0.0
 10
413.431939
 20
70.625964
 30
0.0
 10
412.782194
 20
71.001095
 30
0.0
  0
SPLINE
  5
12d
100
AcDbEntity
  8
Custom_cutouts
 62
7
100
AcDbSpline
 70
8
 71
3
 72
8
 73
4
 74
0
 40
0
 40
0
 40
0
 40
0
 40
1
 40
1
 40
1
 40
1
 10
412.782194
 20
71.001095
 30
0.0
 10
412.132448
 20
71.376226
 30
0.0
 10
411.331928
 20
71.376226
 30
0.0
 10
410.682182
 20
71.001095
 30
0.0
  0
SPLINE
  5
12e
100
AcDbEntity
  8
Custom_cutouts
 62
7
100
AcDbSpline
 70
8
 71
3
 72
8
 73
4
 74
0
 40
0
 40
0
 40
0
 40
0
 40
1
 40
1
 40
1
 40
1
 10
410.682182
 20
71.001095
 30
0.0
 10
410.032437
 20
70.625964
 30
0.0
 10
409.632177
 20
69.932693
 30
0.0
 10
409.632177
 20
69.182432
 30
0.0
  0
SPLINE
  5
12f
100
AcDbEntity
  8
Custom_cutouts
 62
7
100
AcDbSpline
 70
8
 71
3
 72
8
 73
4
 74
0
 40
0
 40
0
 40
0
 40
0
 40
1
 40
1
 40
1
 40
1
 10
409.632177
 20
69.182432
 30
0.0
 10
409.632177
 20
68.432170
 30
0.0
 10
410.032437
 20
67.738899
 30
0.0
 10
410.682182
 20
67.363769
 30
0.0
  0
SPLINE
  5
130
100
AcDbEntity
  8
Custom_cutouts
 62
7
100
AcDbSpline
 70
8
 71
3
 72
8
 73
4
 74
0
 40
0
 40
0
 40
0
 40
0
 40
1
 40
1
 40
1
 40
1
 10
410.682182
 20
67.363769
 30
0.0
 10
411.331928
 20
66.988638
 30
0.0
 10
412.132448
 20
66.988638
 30
0.0
 10
412.782194
 20
67.363769
 30
0.0
  0
SPLINE
  5
131
100
AcDbEntity
  8
Custom_cutouts
 62
7
100
AcDbSpline
 70
8
 71
3
 72
8
 73
4
 74
0
 40
0
 40
0
 40
0
 40
0
 40
1
 40
1
 40
1
 40
1
 10
412.782194
 20
67.363769
 30
0.0
 10
413.431939
 20
67.738899
 30
0.0
 10
413.832199
 20
68.432170
 30
0.0
 10
413.832199
 20
69.182432
 30
0.0
  0
LINE
  5
132
100
AcDbEntity
  8
Custom_cutouts
 62
7
100
AcDbLine
 10
413.832199
 20
69.182432
 30
0.0
 11
413.832199
 21
69.182432
 31
0.0
  0
SPLINE
  5
133
100
AcDbEntity
  8
Custom_cutouts
 62
7
100
AcDbSpline
 70
8
 71
3
 72
8
 73
4
 74
0
 40
0
 40
0
 40
0
 40
0
 40
1
 40
1
 40
1
 40
1
 10
66.532169
 20
13.832428
 30
0.0
 10
66.532169
 20
14.404053
 30
0.0
 10
66.227211
 20
14.932257
 30
0.0
 10
65.732169
 20
15.218069
 30
0.0
  0
SPLINE
  5
134
100
AcDbEntity
  8
Custom_cutouts
 62
7
100
AcDbSpline
 70
8
 71
3
 72
8
 73
4
 74
0
 40
0
 40
0
 40
0
 40
0
 40
1
 40
1
 40
1
 40
1
 10
65.732169
 20
15.218069
 30
0.0
 10
65.237127
 20
15.503882
 30
0.0
 10
64.627210
 20
15.503882
 30
0.0
 10
64.132169
 20
15.218069
 30
0.0
  0
SPLINE
  5
135
100
AcDbEntity
  8
Custom_cutouts
 62
7
100
AcDbSpline
 70
8
 71
3
 72
8
 73
4
 74
0
 40
0
 40
0
 40
0
 40
0
 40
1
 40
1
 40
1
 40
1
 10
64.132169
 20
15.218069
 30
0.0
 10
63.637127
 20
14.932257
 30
0.0
 10
63.332168
 20
14.404053
 30
0.0
 10
63.332168
 20
13.832428
 30
0.0
  0
SPLINE
  5
136
100
AcDbEntity
  8
Custom_cutouts
 62
7
100
AcDbSpline
 70
8
 71
3
 72
8
 73
4
 74
0
 40
0
 40
0
 40
0
 40
0
 40
1
 40
1
 40
1
 40
1
 10
63.332168
 20
13.832428
 30
0.0
 10
63.332168
 20
13.260803
 30
0.0
 10
63.637127
 20
12.732600
 30
0.0
 10
64.132169
 20
12.446787
 30
0.0
  0
SPLINE
  5
137
100
AcDbEntity
  8
Custom_cutouts
 62
7
100
AcDbSpline
 70
8
 71
3
 72
8
 73
4
 74
0
 40
0
 40
0
 40
0
 40
0
 40
1
 40
1
 40
1
 40
1
 10
64.132169
 20
12.446787
 30
0.0
 10
64.627210
 20
12.160975
 30
0.0
 10
65.237127
 20
12.160975
 30
0.0
 10
65.732169
 20
12.446787
 30
0.0
  0
SPLINE
  5
138
100
AcDbEntity
  8
Custom_cutouts
 62
7
100
AcDbSpline
 70
8
 71
3
 72
8
 73
4
 74
0
 40
0
 40
0
 40
0
 40
0
 40
1
 40
1
 40
1
 40
1
 10
65.732169
 20
12.446787
 30
0.0
 10
66.227211
 20
12.732600
 30
0.0
 10
66.532169
 20
13.260803
 30
0.0
 10
66.532169
 20
13.832428
 30
0.0
  0
LINE
  5
139
100
AcDbEntity
  8
Custom_cutouts
 62
7
100
AcDbLine
 10
66.532169
 20
13.832428
 30
0.0
 11
66.532169
 21
13.832428
 31
0.0
  0
SPLINE
  5
13a
100
AcDbEntity
  8
Custom_cutouts
 62
7
100
AcDbSpline
 70
8
 71
3
 72
8
 73
4
 74
0
 40
0
 40
0
 40
0
 40
0
 40
1
 40
1
 40
1
 40
1
 10
415.732199
 20
44.182430
 30
0.0
 10
415.732199
 20
54.543133
 30
0.0
 10
410.204830
 20
64.116817
 30
0.0
 10
401.232198
 20
69.297168
 30
0.0
  0
SPLINE
  5
13b
100
AcDbEntity
  8
Custom_cutouts
 62
7
100
AcDbSpline
 70
8
 71
3
 72
8
 73
4
 74
0
 40
0
 40
0
 40
0
 40
0
 40
1
 40
1
 40
1
 40
1
 10
401.232198
 20
69.297168
 30
0.0
 10
392.259566
 20
74.477520
 30
0.0
 10
381.204827
 20
74.477520
 30
0.0
 10
372.232196
 20
69.297168
 30
0.0
  0
SPLINE
  5
13c
100
AcDbEntity
  8
Custom_cutouts
 62
7
100
AcDbSpline
 70
8
 71
3
 72
8
 73
4
 74
0
 40
0
 40
0
 40
0
 40
0
 40
1
 40
1
 40
1
 40
1
 10
372.232196
 20
69.297168
 30
0.0
 10
363.259564
 20
64.116817
 30
0.0
 10
357.732195
 20
54.543133
 30
0.0
 10
357.732195
 20
44.182430
 30
0.0
  0
SPLINE
  5
13d
100
AcDbEntity
  8
Custom_cutouts
 62
7
100
AcDbSpline
 70
8
 71
3
 72
8
 73
4
 74
0
 40
0
 40
0
 40
0
 40
0
 40
1
 40
1
 40
1
 40
1
 10
357.732195
 20
44.182430
 30
0.0
 10
357.732195
 20
33.821727
 30
0.0
 10
363.259564
 20
24.248043
 30
0.0
 10
372.232196
 20
19.067691
 30
0.0
  0
SPLINE
  5
13e
100
AcDbEntity
  8
Custom_cutouts
 62
7
100
AcDbSpline
 70
8
 71
3
 72
8
 73
4
 74
0
 40
0
 40
0
 40
0
 40
0
 40
1
 40
1
 40
1
 40
1
 10
372.232196
 20
19.067691
 30
0.0
 10
381.204827
 20
13.887340
 30
0.0
 10
392.259566
 20
13.887340
 30
0.0
 10
401.232198
 20
19.067691
 30
0.0
  0
SPLINE
  5
13f
100
AcDbEntity
  8
Custom_cutouts
 62
7
100
AcDbSpline
 70
8
 71
3
 72
8
 73
4
 74
0
 40
0
 40
0
 40
0
 40
0
 40
1
 40
1
 40
1
 40
1
 10
401.232198
 20
19.067691
 30
0.0
 10
410.204830
 20
24.248043
 30
0.0
 10
415.732199
 20
33.821727
 30
0.0
 10
415.732199
 20
44.182430
 30
0.0
  0
LINE
  5
140
100
AcDbEntity
  8
Custom_cutouts
 62
7
100
AcDbLine
 10
415.732199
 20
44.182430
 30
0.0
 11
415.732199
 21
44.182430
 31
0.0
  0
SPLINE
  5
141
100
AcDbEntity
  8
Custom_cutouts
 62
7
100
AcDbSpline
 70
8
 71
3
 72
8
 73
4
 74
0
 40
0
 40
0
 40
0
 40
0
 40
1
 40
1
 40
1
 40
1
 10
363.832190
 20
19.182428
 30
0.0
 10
363.830545
 20
20.341061
 30
0.0
 10
362.890826
 20
21.279446
 30
0.0
 10
361.732192
 20
21.279446
 30
0.0
  0
SPLINE
  5
142
100
AcDbEntity
  8
Custom_cutouts
 62
7
100
AcDbSpline
 70
8
 71
3
 72
8
 73
4
 74
0
 40
0
 40
0
 40
0
 40
0
 40
1
 40
1
 40
1
 40
1
 10
361.732192
 20
21.279446
 30
0.0
 10
360.573558
 20
21.279446
 30
0.0
 10
359.633839
 20
20.341061
 30
0.0
 10
359.632194
 20
19.182428
 30
0.0
  0
SPLINE
  5
143
100
AcDbEntity
  8
Custom_cutouts
 62
7
100
AcDbSpline
 70
8
 71
3
 72
8
 73
4
 74
0
 40
0
 40
0
 40
0
 40
0
 40
1
 40
1
 40
1
 40
1
 10
359.632194
 20
19.182428
 30
0.0
 10
359.633839
 20
18.023795
 30
0.0
 10
360.573558
 20
17.085409
 30
0.0
 10
361.732192
 20
17.085409
 30
0.0
  0
SPLINE
  5
144
100
AcDbEntity
  8
Custom_cutouts
 62
7
100
AcDbSpline
 70
8
 71
3
 72
8
 73
4
 74
0
 40
0
 40
0
 40
0
 40
0
 40
1
 40
1
 40
1
 40
1
 10
361.732192
 20
17.085409
 30
0.0
 10
362.890826
 20
17.085409
 30
0.0
 10
363.830545
 20
18.023795
 30
0.0
 10
363.832190
 20
19.182428
 30
0.0
  0
LINE
  5
145
100
AcDbEntity
  8
Custom_cutouts
 62
7
100
AcDbLine
 10
363.832190
 20
19.182428
 30
0.0
 11
363.832190
 21
19.182428
 31
0.0
  0
LINE
  5
146
100
AcDbEntity
  8
Custom_cutouts
 62
7
100
AcDbLine
 10
128.840979
 20
22.089278
 30
0.0
 11
127.636331
 21
28.921879
 31
0.0
  0
SPLINE
  5
147
100
AcDbEntity
  8
Custom_cutouts
 62
7
100
AcDbSpline
 70
8
 71
3
 72
8
 73
4
 74
0
 40
0
 40
0
 40
0
 40
0
 40
1
 40
1
 40
1
 40
1
 10
128.841016
 20
22.089159
 30
0.0
 10
129.025037
 20
21.045522
 30
0.0
 10
129.931805
 20
20.284653
 30
0.0
 10
130.991542
 20
20.284653
 30
0.0
  0
LINE
  5
148
100
AcDbEntity
  8
Custom_cutouts
 62
7
100
AcDbLine
 10
143.872753
 20
20.284555
 30
0.0
 11
130.991513
 21
20.284555
 31
0.0
  0
SPLINE
  5
149
100
AcDbEntity
  8
Custom_cutouts
 62
7
100
AcDbSpline
 70
8
 71
3
 72
8
 73
4
 74
0
 40
0
 40
0
 40
0
 40
0
 40
1
 40
1
 40
1
 40
1
 10
143.872798
 20
20.284653
 30
0.0
 10
144.932535
 20
20.284653
 30
0.0
 10
145.839303
 20
21.045522
 30
0.0
 10
146.023324
 20
22.089159
 30
0.0
  0
LINE
  5
14a
100
AcDbEntity
  8
Custom_cutouts
 62
7
100
AcDbLine
 10
147.228199
 20
28.921879
 30
0.0
 11
146.023287
 21
22.089278
 31
0.0
  0
SPLINE
  5
14b
100
AcDbEntity
  8
Custom_cutouts
 62
7
100
AcDbSpline
 70
8
 71
3
 72
8
 73
4
 74
0
 40
0
 40
0
 40
0
 40
0
 40
1
 40
1
 40
1
 40
1
 10
147.228096
 20
28.921760
 30
0.0
 10
147.340183
 20
29.557439
 30
0.0
 10
147.165292
 20
30.210139
 30
0.0
 10
146.750382
 20
30.704610
 30
0.0
  0
SPLINE
  5
14c
100
AcDbEntity
  8
Custom_cutouts
 62
7
100
AcDbSpline
 70
8
 71
3
 72
8
 73
4
 74
0
 40
0
 40
0
 40
0
 40
0
 40
1
 40
1
 40
1
 40
1
 10
146.750382
 20
30.704610
 30
0.0
 10
146.335471
 20
31.199081
 30
0.0
 10
145.723057
 20
31.484654
 30
0.0
 10
145.077570
 20
31.484654
 30
0.0
  0
LINE
  5
14d
100
AcDbEntity
  8
Custom_cutouts
 62
7
100
AcDbLine
 10
129.786865
 20
31.484633
 30
0.0
 11
145.077666
 21
31.484633
 31
0.0
  0
SPLINE
  5
14e
100
AcDbEntity
  8
Custom_cutouts
 62
7
100
AcDbSpline
 70
8
 71
3
 72
8
 73
4
 74
0
 40
0
 40
0
 40
0
 40
0
 40
1
 40
1
 40
1
 40
1
 10
129.786769
 20
31.484654
 30
0.0
 10
129.141283
 20
31.484654
 30
0.0
 10
128.528869
 20
31.199081
 30
0.0
 10
128.113958
 20
30.704610
 30
0.0
  0
SPLINE
  5
14f
100
AcDbEntity
  8
Custom_cutouts
 62
7
100
AcDbSpline
 70
8
 71
3
 72
8
 73
4
 74
0
 40
0
 40
0
 40
0
 40
0
 40
1
 40
1
 40
1
 40
1
 10
128.113958
 20
30.704610
 30
0.0
 10
127.699047
 20
30.210139
 30
0.0
 10
127.524157
 20
29.557439
 30
0.0
 10
127.636244
 20
28.921760
 30
0.0
  0
SPLINE
  5
150
100
AcDbEntity
  8
Custom_cutouts
 62
7
100
AcDbSpline
 70
8
 71
3
 72
8
 73
4
 74
0
 40
0
 40
0
 40
0
 40
0
 40
1
 40
1
 40
1
 40
1
 10
47.532163
 20
80.895371
 30
0.0
 10
47.531148
 20
81.778308
 30
0.0
 10
46.815101
 20
82.493531
 30
0.0
 10
45.932164
 20
82.493531
 30
0.0
  0
SPLINE
  5
151
100
AcDbEntity
  8
Custom_cutouts
 62
7
100
AcDbSpline
 70
8
 71
3
 72
8
 73
4
 74
0
 40
0
 40
0
 40
0
 40
0
 40
1
 40
1
 40
1
 40
1
 10
45.932164
 20
82.493531
 30
0.0
 10
45.049227
 20
82.493531
 30
0.0
 10
44.333181
 20
81.778308
 30
0.0
 10
44.332165
 20
80.895371
 30
0.0
  0
SPLINE
  5
152
100
AcDbEntity
  8
Custom_cutouts
 62
7
100
AcDbSpline
 70
8
 71
3
 72
8
 73
4
 74
0
 40
0
 40
0
 40
0
 40
0
 40
1
 40
1
 40
1
 40
1
 10
44.332165
 20
80.895371
 30
0.0
 10
44.333181
 20
80.012435
 30
0.0
 10
45.049227
 20
79.297211
 30
0.0
 10
45.932164
 20
79.297211
 30
0.0
  0
SPLINE
  5
153
100
AcDbEntity
  8
Custom_cutouts
 62
7
100
AcDbSpline
 70
8
 71
3
 72
8
 73
4
 74
0
 40
0
 40
0
 40
0
 40
0
 40
1
 40
1
 40
1
 40
1
 10
45.932164
 20
79.297211
 30
0.0
 10
46.815101
 20
79.297211
 30
0.0
 10
47.531148
 20
80.012435
 30
0.0
 10
47.532163
 20
80.895371
 30
0.0
  0
LINE
  5
154
100
AcDbEntity
  8
Custom_cutouts
 62
7
100
AcDbLine
 10
47.532163
 20
80.895371
 30
0.0
 11
47.532163
 21
80.895371
 31
0.0
  0
SPLINE
  5
155
100
AcDbEntity
  8
Custom_cutouts
 62
7
100
AcDbSpline
 70
8
 71
3
 72
8
 73
4
 74
0
 40
0
 40
0
 40
0
 40
0
 40
1
 40
1
 40
1
 40
1
 10
102.061167
 20
69.015170
 30
0.0
 10
101.298655
 20
70.307809
 30
0.0
 10
99.765435
 20
70.930326
 30
0.0
 10
98.317625
 20
70.535121
 30
0.0
  0
SPLINE
  5
156
100
AcDbEntity
  8
Custom_cutouts
 62
7
100
AcDbSpline
 70
8
 71
3
 72
8
 73
4
 74
0
 40
0
 40
0
 40
0
 40
0
 40
1
 40
1
 40
1
 40
1
 10
98.317625
 20
70.535121
 30
0.0
 10
96.869815
 20
70.139916
 30
0.0
 10
95.865522
 20
68.824740
 30
0.0
 10
95.865522
 20
67.323960
 30
0.0
  0
SPLINE
  5
157
100
AcDbEntity
  8
Custom_cutouts
 62
7
100
AcDbSpline
 70
8
 71
3
 72
8
 73
4
 74
0
 40
0
 40
0
 40
0
 40
0
 40
1
 40
1
 40
1
 40
1
 10
95.865522
 20
67.323960
 30
0.0
 10
95.865522
 20
65.823181
 30
0.0
 10
96.869815
 20
64.508004
 30
0.0
 10
98.317625
 20
64.112800
 30
0.0
  0
SPLINE
  5
158
100
AcDbEntity
  8
Custom_cutouts
 62
7
100
AcDbSpline
 70
8
 71
3
 72
8
 73
4
 74
0
 40
0
 40
0
 40
0
 40
0
 40
1
 40
1
 40
1
 40
1
 10
98.317625
 20
64.112800
 30
0.0
 10
99.765435
 20
63.717595
 30
0.0
 10
101.298655
 20
64.340112
 30
0.0
 10
102.061167
 20
65.632751
 30
0.0
  0
LINE
  5
159
100
AcDbEntity
  8
Custom_cutouts
 62
7
100
AcDbLine
 10
102.061175
 20
69.015173
 30
0.0
 11
102.061175
 21
65.632739
 31
0.0
  0
SPLINE
  5
15a
100
AcDbEntity
  8
Custom_cutouts
 62
7
100
AcDbSpline
 70
8
 71
3
 72
8
 73
4
 74
0
 40
0
 40
0
 40
0
 40
0
 40
1
 40
1
 40
1
 40
1
 10
67.532164
 20
68.895371
 30
0.0
 10
67.529745
 20
75.576305
 30
0.0
 10
62.113099
 20
80.990989
 30
0.0
 10
55.432165
 20
80.990989
 30
0.0
  0
SPLINE
  5
15b
100
AcDbEntity
  8
Custom_cutouts
 62
7
100
AcDbSpline
 70
8
 71
3
 72
8
 73
4
 74
0
 40
0
 40
0
 40
0
 40
0
 40
1
 40
1
 40
1
 40
1
 10
55.432165
 20
80.990989
 30
0.0
 10
48.751230
 20
80.990989
 30
0.0
 10
43.334585
 20
75.576305
 30
0.0
 10
43.332165
 20
68.895371
 30
0.0
  0
SPLINE
  5
15c
100
AcDbEntity
  8
Custom_cutouts
 62
7
100
AcDbSpline
 70
8
 71
3
 72
8
 73
4
 74
0
 40
0
 40
0
 40
0
 40
0
 40
1
 40
1
 40
1
 40
1
 10
43.332165
 20
68.895371
 30
0.0
 10
43.334585
 20
62.214437
 30
0.0
 10
48.751230
 20
56.799753
 30
0.0
 10
55.432165
 20
56.799753
 30
0.0
  0
SPLINE
  5
15d
100
AcDbEntity
  8
Custom_cutouts
 62
7
100
AcDbSpline
 70
8
 71
3
 72
8
 73
4
 74
0
 40
0
 40
0
 40
0
 40
0
 40
1
 40
1
 40
1
 40
1
 10
55.432165
 20
56.799753
 30
0.0
 10
62.113099
 20
56.799753
 30
0.0
 10
67.529745
 20
62.214437
 30
0.0
 10
67.532164
 20
68.895371
 30
0.0
  0
LINE
  5
15e
100
AcDbEntity
  8
Custom_cutouts
 62
7
100
AcDbLine
 10
67.532164
 20
68.895371
 30
0.0
 11
67.532164
 21
68.895371
 31
0.0
  0
SPLINE
  5
15f
100
AcDbEntity
  8
Custom_cutouts
 62
7
100
AcDbSpline
 70
8
 71
3
 72
8
 73
4
 74
0
 40
0
 40
0
 40
0
 40
0
 40
1
 40
1
 40
1
 40
1
 10
126.587171
 20
25.884655
 30
0.0
 10
126.587171
 20
26.474144
 30
0.0
 10
126.272682
 20
27.018854
 30
0.0
 10
125.762170
 20
27.313598
 30
0.0
  0
SPLINE
  5
160
100
AcDbEntity
  8
Custom_cutouts
 62
7
100
AcDbSpline
 70
8
 71
3
 72
8
 73
4
 74
0
 40
0
 40
0
 40
0
 40
0
 40
1
 40
1
 40
1
 40
1
 10
125.762170
 20
27.313598
 30
0.0
 10
125.251658
 20
27.608342
 30
0.0
 10
124.622681
 20
27.608342
 30
0.0
 10
124.112169
 20
27.313598
 30
0.0
  0
SPLINE
  5
161
100
AcDbEntity
  8
Custom_cutouts
 62
7
100
AcDbSpline
 70
8
 71
3
 72
8
 73
4
 74
0
 40
0
 40
0
 40
0
 40
0
 40
1
 40
1
 40
1
 40
1
 10
124.112169
 20
27.313598
 30
0.0
 10
123.601657
 20
27.018854
 30
0.0
 10
123.287168
 20
26.474144
 30
0.0
 10
123.287168
 20
25.884655
 30
0.0
  0
SPLINE
  5
162
100
AcDbEntity
  8
Custom_cutouts
 62
7
100
AcDbSpline
 70
8
 71
3
 72
8
 73
4
 74
0
 40
0
 40
0
 40
0
 40
0
 40
1
 40
1
 40
1
 40
1
 10
123.287168
 20
25.884655
 30
0.0
 10
123.287168
 20
25.295166
 30
0.0
 10
123.601657
 20
24.750456
 30
0.0
 10
124.112169
 20
24.455712
 30
0.0
  0
SPLINE
  5
163
100
AcDbEntity
  8
Custom_cutouts
 62
7
100
AcDbSpline
 70
8
 71
3
 72
8
 73
4
 74
0
 40
0
 40
0
 40
0
 40
0
 40
1
 40
1
 40
1
 40
1
 10
124.112169
 20
24.455712
 30
0.0
 10
124.622681
 20
24.160967
 30
0.0
 10
125.251658
 20
24.160967
 30
0.0
 10
125.762170
 20
24.455712
 30
0.0
  0
SPLINE
  5
164
100
AcDbEntity
  8
Custom_cutouts
 62
7
100
AcDbSpline
 70
8
 71
3
 72
8
 73
4
 74
0
 40
0
 40
0
 40
0
 40
0
 40
1
 40
1
 40
1
 40
1
 10
125.762170
 20
24.455712
 30
0.0
 10
126.272682
 20
24.750456
 30
0.0
 10
126.587171
 20
25.295166
 30
0.0
 10
126.587171
 20
25.884655
 30
0.0
  0
LINE
  5
165
100
AcDbEntity
  8
Custom_cutouts
 62
7
100
AcDbLine
 10
126.587171
 20
25.884655
 30
0.0
 11
126.587171
 21
25.884655
 31
0.0
  0
SPLINE
  5
166
100
AcDbEntity
  8
Custom_cutouts
 62
7
100
AcDbSpline
 70
8
 71
3
 72
8
 73
4
 74
0
 40
0
 40
0
 40
0
 40
0
 40
1
 40
1
 40
1
 40
1
 10
196.956174
 20
29.157733
 30
0.0
 10
195.502753
 20
32.027124
 30
0.0
 10
192.270300
 20
33.524320
 30
0.0
 10
189.141785
 20
32.777173
 30
0.0
  0
SPLINE
  5
167
100
AcDbEntity
  8
Custom_cutouts
 62
7
100
AcDbSpline
 70
8
 71
3
 72
8
 73
4
 74
0
 40
0
 40
0
 40
0
 40
0
 40
1
 40
1
 40
1
 40
1
 10
189.141785
 20
32.777173
 30
0.0
 10
186.013270
 20
32.030026
 30
0.0
 10
183.806173
 20
29.233766
 30
0.0
 10
183.806173
 20
26.017272
 30
0.0
  0
SPLINE
  5
168
100
AcDbEntity
  8
Custom_cutouts
 62
7
100
AcDbSpline
 70
8
 71
3
 72
8
 73
4
 74
0
 40
0
 40
0
 40
0
 40
0
 40
1
 40
1
 40
1
 40
1
 10
183.806173
 20
26.017272
 30
0.0
 10
183.806173
 20
22.800778
 30
0.0
 10
186.013270
 20
20.004518
 30
0.0
 10
189.141785
 20
19.257371
 30
0.0
  0
SPLINE
  5
169
100
AcDbEntity
  8
Custom_cutouts
 62
7
100
AcDbSpline
 70
8
 71
3
 72
8
 73
4
 74
0
 40
0
 40
0
 40
0
 40
0
 40
1
 40
1
 40
1
 40
1
 10
189.141785
 20
19.257371
 30
0.0
 10
192.270300
 20
18.510224
 30
0.0
 10
195.502753
 20
20.007420
 30
0.0
 10
196.956174
 20
22.876810
 30
0.0
  0
LINE
  5
16a
100
AcDbEntity
  8
Custom_cutouts
 62
7
100
AcDbLine
 10
196.956111
 20
26.017283
 30
0.0
 11
196.956111
 21
22.876678
 31
0.0
  0
LINE
  5
16b
100
AcDbEntity
  8
Custom_cutouts
 62
7
100
AcDbLine
 10
196.956111
 20
29.157622
 30
0.0
 11
196.956111
 21
26.017283
 31
0.0
  0
SPLINE
  5
16c
100
AcDbEntity
  8
Custom_cutouts
 62
7
100
AcDbSpline
 70
8
 71
3
 72
8
 73
4
 74
0
 40
0
 40
0
 40
0
 40
0
 40
1
 40
1
 40
1
 40
1
 10
363.832190
 20
69.182432
 30
0.0
 10
363.830545
 20
70.341064
 30
0.0
 10
362.890826
 20
71.279450
 30
0.0
 10
361.732192
 20
71.279450
 30
0.0
  0
SPLINE
  5
16d
100
AcDbEntity
  8
Custom_cutouts
 62
7
100
AcDbSpline
 70
8
 71
3
 72
8
 73
4
 74
0
 40
0
 40
0
 40
0
 40
0
 40
1
 40
1
 40
1
 40
1
 10
361.732192
 20
71.279450
 30
0.0
 10
360.573558
 20
71.279450
 30
0.0
 10
359.633839
 20
70.341064
 30
0.0
 10
359.632194
 20
69.182432
 30
0.0
  0
SPLINE
  5
16e
100
AcDbEntity
  8
Custom_cutouts
 62
7
100
AcDbSpline
 70
8
 71
3
 72
8
 73
4
 74
0
 40
0
 40
0
 40
0
 40
0
 40
1
 40
1
 40
1
 40
1
 10
359.632194
 20
69.182432
 30
0.0
 10
359.633839
 20
68.023799
 30
0.0
 10
360.573558
 20
67.085413
 30
0.0
 10
361.732192
 20
67.085413
 30
0.0
  0
SPLINE
  5
16f
100
AcDbEntity
  8
Custom_cutouts
 62
7
100
AcDbSpline
 70
8
 71
3
 72
8
 73
4
 74
0
 40
0
 40
0
 40
0
 40
0
 40
1
 40
1
 40
1
 40
1
 10
361.732192
 20
67.085413
 30
0.0
 10
362.890826
 20
67.085413
 30
0.0
 10
363.830545
 20
68.023799
 30
0.0
 10
363.832190
 20
69.182432
 30
0.0
  0
LINE
  5
170
100
AcDbEntity
  8
Custom_cutouts
 62
7
100
AcDbLine
 10
363.832190
 20
69.182432
 30
0.0
 11
363.832190
 21
69.182432
 31
0.0
  0
SPLINE
  5
171
100
AcDbEntity
  8
Custom_cutouts
 62
7
100
AcDbSpline
 70
8
 71
3
 72
8
 73
4
 74
0
 40
0
 40
0
 40
0
 40
0
 40
1
 40
1
 40
1
 40
1
 10
47.532169
 20
38.132430
 30
0.0
 10
47.532169
 20
38.704055
 30
0.0
 10
47.227210
 20
39.232258
 30
0.0
 10
46.732169
 20
39.518071
 30
0.0
  0
SPLINE
  5
172
100
AcDbEntity
  8
Custom_cutouts
 62
7
100
AcDbSpline
 70
8
 71
3
 72
8
 73
4
 74
0
 40
0
 40
0
 40
0
 40
0
 40
1
 40
1
 40
1
 40
1
 10
46.732169
 20
39.518071
 30
0.0
 10
46.237127
 20
39.803883
 30
0.0
 10
45.627210
 20
39.803883
 30
0.0
 10
45.132168
 20
39.518071
 30
0.0
  0
SPLINE
  5
173
100
AcDbEntity
  8
Custom_cutouts
 62
7
100
AcDbSpline
 70
8
 71
3
 72
8
 73
4
 74
0
 40
0
 40
0
 40
0
 40
0
 40
1
 40
1
 40
1
 40
1
 10
45.132168
 20
39.518071
 30
0.0
 10
44.637126
 20
39.232258
 30
0.0
 10
44.332168
 20
38.704055
 30
0.0
 10
44.332168
 20
38.132430
 30
0.0
  0
SPLINE
  5
174
100
AcDbEntity
  8
Custom_cutouts
 62
7
100
AcDbSpline
 70
8
 71
3
 72
8
 73
4
 74
0
 40
0
 40
0
 40
0
 40
0
 40
1
 40
1
 40
1
 40
1
 10
44.332168
 20
38.132430
 30
0.0
 10
44.332168
 20
37.560805
 30
0.0
 10
44.637126
 20
37.032601
 30
0.0
 10
45.132168
 20
36.746789
 30
0.0
  0
SPLINE
  5
175
100
AcDbEntity
  8
Custom_cutouts
 62
7
100
AcDbSpline
 70
8
 71
3
 72
8
 73
4
 74
0
 40
0
 40
0
 40
0
 40
0
 40
1
 40
1
 40
1
 40
1
 10
45.132168
 20
36.746789
 30
0.0
 10
45.627210
 20
36.460976
 30
0.0
 10
46.237127
 20
36.460976
 30
0.0
 10
46.732169
 20
36.746789
 30
0.0
  0
SPLINE
  5
176
100
AcDbEntity
  8
Custom_cutouts
 62
7
100
AcDbSpline
 70
8
 71
3
 72
8
 73
4
 74
0
 40
0
 40
0
 40
0
 40
0
 40
1
 40
1
 40
1
 40
1
 10
46.732169
 20
36.746789
 30
0.0
 10
47.227210
 20
37.032601
 30
0.0
 10
47.532169
 20
37.560805
 30
0.0
 10
47.532169
 20
38.132430
 30
0.0
  0
LINE
  5
177
100
AcDbEntity
  8
Custom_cutouts
 62
7
100
AcDbLine
 10
47.532169
 20
38.132430
 30
0.0
 11
47.532169
 21
38.132430
 31
0.0
  0
LINE
  5
178
100
AcDbEntity
  8
Custom_cutouts
 62
7
100
AcDbLine
 10
0.132292
 20
0.132300
 30
0.0
 11
482.731265
 21
0.132300
 31
0.0
  0
LINE
  5
179
100
AcDbEntity
  8
Custom_cutouts
 62
7
100
AcDbLine
 10
482.731265
 20
88.232433
 30
0.0
 11
0.132292
 21
88.232433
 31
0.0
  0
LINE
  5
17a
100
AcDbEntity
  8
Custom_cutouts
 62
7
100
AcDbLine
 10
0.132292
 20
0.132300
 30
0.0
 11
0.132292
 21
88.232433
 31
0.0
  0
LINE
  5
17b
100
AcDbEntity
  8
Custom_cutouts
 62
7
100
AcDbLine
 10
482.731265
 20
88.232433
 30
0.0
 11
482.731265
 21
0.132300
 31
0.0
  0
SPLINE
  5
17c
100
AcDbEntity
  8
Enclosure_side_fasteners
 62
7
100
AcDbSpline
 70
8
 71
3
 72
8
 73
4
 74
0
 40
0
 40
0
 40
0
 40
0
 40
1
 40
1
 40
1
 40
1
 10
454.532183
 20
70.682432
 30
0.0
 10
454.532183
 20
72.236538
 30
0.0
 10
453.703077
 20
73.672591
 30
0.0
 10
452.357182
 20
74.449644
 30
0.0
  0
SPLINE
  5
17d
100
AcDbEntity
  8
Enclosure_side_fasteners
 62
7
100
AcDbSpline
 70
8
 71
3
 72
8
 73
4
 74
0
 40
0
 40
0
 40
0
 40
0
 40
1
 40
1
 40
1
 40
1
 10
452.357182
 20
74.449644
 30
0.0
 10
451.011287
 20
75.226697
 30
0.0
 10
449.353076
 20
75.226697
 30
0.0
 10
448.007180
 20
74.449644
 30
0.0
  0
SPLINE
  5
17e
100
AcDbEntity
  8
Enclosure_side_fasteners
 62
7
100
AcDbSpline
 70
8
 71
3
 72
8
 73
4
 74
0
 40
0
 40
0
 40
0
 40
0
 40
1
 40
1
 40
1
 40
1
 10
448.007180
 20
74.449644
 30
0.0
 10
446.661285
 20
73.672591
 30
0.0
 10
445.832180
 20
72.236538
 30
0.0
 10
445.832180
 20
70.682432
 30
0.0
  0
SPLINE
  5
17f
100
AcDbEntity
  8
Enclosure_side_fasteners
 62
7
100
AcDbSpline
 70
8
 71
3
 72
8
 73
4
 74
0
 40
0
 40
0
 40
0
 40
0
 40
1
 40
1
 40
1
 40
1
 10
445.832180
 20
70.682432
 30
0.0
 10
445.832180
 20
69.128326
 30
0.0
 10
446.661285
 20
67.692273
 30
0.0
 10
448.007180
 20
66.915220
 30
0.0
  0
SPLINE
  5
180
100
AcDbEntity
  8
Enclosure_side_fasteners
 62
7
100
AcDbSpline
 70
8
 71
3
 72
8
 73
4
 74
0
 40
0
 40
0
 40
0
 40
0
 40
1
 40
1
 40
1
 40
1
 10
448.007180
 20
66.915220
 30
0.0
 10
449.353076
 20
66.138167
 30
0.0
 10
451.011287
 20
66.138167
 30
0.0
 10
452.357182
 20
66.915220
 30
0.0
  0
SPLINE
  5
181
100
AcDbEntity
  8
Enclosure_side_fasteners
 62
7
100
AcDbSpline
 70
8
 71
3
 72
8
 73
4
 74
0
 40
0
 40
0
 40
0
 40
0
 40
1
 40
1
 40
1
 40
1
 10
452.357182
 20
66.915220
 30
0.0
 10
453.703077
 20
67.692273
 30
0.0
 10
454.532183
 20
69.128326
 30
0.0
 10
454.532183
 20
70.682432
 30
0.0
  0
LINE
  5
182
100
AcDbEntity
  8
Enclosure_side_fasteners
 62
7
100
AcDbLine
 10
454.532183
 20
70.682432
 30
0.0
 11
454.532183
 21
70.682432
 31
0.0
  0
SPLINE
  5
183
100
AcDbEntity
  8
Enclosure_side_fasteners
 62
7
100
AcDbSpline
 70
8
 71
3
 72
8
 73
4
 74
0
 40
0
 40
0
 40
0
 40
0
 40
1
 40
1
 40
1
 40
1
 10
452.432185
 20
17.682428
 30
0.0
 10
452.432185
 20
18.486277
 30
0.0
 10
452.003337
 20
19.229064
 30
0.0
 10
451.307183
 20
19.630988
 30
0.0
  0
SPLINE
  5
184
100
AcDbEntity
  8
Enclosure_side_fasteners
 62
7
100
AcDbSpline
 70
8
 71
3
 72
8
 73
4
 74
0
 40
0
 40
0
 40
0
 40
0
 40
1
 40
1
 40
1
 40
1
 10
451.307183
 20
19.630988
 30
0.0
 10
450.611030
 20
20.032913
 30
0.0
 10
449.753333
 20
20.032913
 30
0.0
 10
449.057180
 20
19.630988
 30
0.0
  0
SPLINE
  5
185
100
AcDbEntity
  8
Enclosure_side_fasteners
 62
7
100
AcDbSpline
 70
8
 71
3
 72
8
 73
4
 74
0
 40
0
 40
0
 40
0
 40
0
 40
1
 40
1
 40
1
 40
1
 10
449.057180
 20
19.630988
 30
0.0
 10
448.361026
 20
19.229064
 30
0.0
 10
447.932178
 20
18.486277
 30
0.0
 10
447.932178
 20
17.682428
 30
0.0
  0
SPLINE
  5
186
100
AcDbEntity
  8
Enclosure_side_fasteners
 62
7
100
AcDbSpline
 70
8
 71
3
 72
8
 73
4
 74
0
 40
0
 40
0
 40
0
 40
0
 40
1
 40
1
 40
1
 40
1
 10
447.932178
 20
17.682428
 30
0.0
 10
447.932178
 20
16.878579
 30
0.0
 10
448.361026
 20
16.135792
 30
0.0
 10
449.057180
 20
15.733868
 30
0.0
  0
SPLINE
  5
187
100
AcDbEntity
  8
Enclosure_side_fasteners
 62
7
100
AcDbSpline
 70
8
 71
3
 72
8
 73
4
 74
0
 40
0
 40
0
 40
0
 40
0
 40
1
 40
1
 40
1
 40
1
 10
449.057180
 20
15.733868
 30
0.0
 10
449.753333
 20
15.331943
 30
0.0
 10
450.611030
 20
15.331943
 30
0.0
 10
451.307183
 20
15.733868
 30
0.0
  0
SPLINE
  5
188
100
AcDbEntity
  8
Enclosure_side_fasteners
 62
7
100
AcDbSpline
 70
8
 71
3
 72
8
 73
4
 74
0
 40
0
 40
0
 40
0
 40
0
 40
1
 40
1
 40
1
 40
1
 10
451.307183
 20
15.733868
 30
0.0
 10
452.003337
 20
16.135792
 30
0.0
 10
452.432185
 20
16.878579
 30
0.0
 10
452.432185
 20
17.682428
 30
0.0
  0
LINE
  5
189
100
AcDbEntity
  8
Enclosure_side_fasteners
 62
7
100
AcDbLine
 10
452.432185
 20
17.682428
 30
0.0
 11
452.432185
 21
17.682428
 31
0.0
  0
SPLINE
  5
18a
100
AcDbEntity
  8
Enclosure_side_fasteners
 62
7
100
AcDbSpline
 70
8
 71
3
 72
8
 73
4
 74
0
 40
0
 40
0
 40
0
 40
0
 40
1
 40
1
 40
1
 40
1
 10
454.532183
 20
17.682428
 30
0.0
 10
454.532183
 20
19.236534
 30
0.0
 10
453.703077
 20
20.672587
 30
0.0
 10
452.357182
 20
21.449640
 30
0.0
  0
SPLINE
  5
18b
100
AcDbEntity
  8
Enclosure_side_fasteners
 62
7
100
AcDbSpline
 70
8
 71
3
 72
8
 73
4
 74
0
 40
0
 40
0
 40
0
 40
0
 40
1
 40
1
 40
1
 40
1
 10
452.357182
 20
21.449640
 30
0.0
 10
451.011287
 20
22.226693
 30
0.0
 10
449.353076
 20
22.226693
 30
0.0
 10
448.007180
 20
21.449640
 30
0.0
  0
SPLINE
  5
18c
100
AcDbEntity
  8
Enclosure_side_fasteners
 62
7
100
AcDbSpline
 70
8
 71
3
 72
8
 73
4
 74
0
 40
0
 40
0
 40
0
 40
0
 40
1
 40
1
 40
1
 40
1
 10
448.007180
 20
21.449640
 30
0.0
 10
446.661285
 20
20.672587
 30
0.0
 10
445.832180
 20
19.236534
 30
0.0
 10
445.832180
 20
17.682428
 30
0.0
  0
SPLINE
  5
18d
100
AcDbEntity
  8
Enclosure_side_fasteners
 62
7
100
AcDbSpline
 70
8
 71
3
 72
8
 73
4
 74
0
 40
0
 40
0
 40
0
 40
0
 40
1
 40
1
 40
1
 40
1
 10
445.832180
 20
17.682428
 30
0.0
 10
445.832180
 20
16.128322
 30
0.0
 10
446.661285
 20
14.692269
 30
0.0
 10
448.007180
 20
13.915216
 30
0.0
  0
SPLINE
  5
18e
100
AcDbEntity
  8
Enclosure_side_fasteners
 62
7
100
AcDbSpline
 70
8
 71
3
 72
8
 73
4
 74
0
 40
0
 40
0
 40
0
 40
0
 40
1
 40
1
 40
1
 40
1
 10
448.007180
 20
13.915216
 30
0.0
 10
449.353076
 20
13.138163
 30
0.0
 10
451.011287
 20
13.138163
 30
0.0
 10
452.357182
 20
13.915216
 30
0.0
  0
SPLINE
  5
18f
100
AcDbEntity
  8
Enclosure_side_fasteners
 62
7
100
AcDbSpline
 70
8
 71
3
 72
8
 73
4
 74
0
 40
0
 40
0
 40
0
 40
0
 40
1
 40
1
 40
1
 40
1
 10
452.357182
 20
13.915216
 30
0.0
 10
453.703077
 20
14.692269
 30
0.0
 10
454.532183
 20
16.128322
 30
0.0
 10
454.532183
 20
17.682428
 30
0.0
  0
LINE
  5
190
100
AcDbEntity
  8
Enclosure_side_fasteners
 62
7
100
AcDbLine
 10
454.532183
 20
17.682428
 30
0.0
 11
454.532183
 21
17.682428
 31
0.0
  0
SPLINE
  5
191
100
AcDbEntity
  8
Enclosure_side_fasteners
 62
7
100
AcDbSpline
 70
8
 71
3
 72
8
 73
4
 74
0
 40
0
 40
0
 40
0
 40
0
 40
1
 40
1
 40
1
 40
1
 10
34.932165
 20
70.682432
 30
0.0
 10
34.932165
 20
71.486280
 30
0.0
 10
34.503317
 20
72.229066
 30
0.0
 10
33.807164
 20
72.630990
 30
0.0
  0
SPLINE
  5
192
100
AcDbEntity
  8
Enclosure_side_fasteners
 62
7
100
AcDbSpline
 70
8
 71
3
 72
8
 73
4
 74
0
 40
0
 40
0
 40
0
 40
0
 40
1
 40
1
 40
1
 40
1
 10
33.807164
 20
72.630990
 30
0.0
 10
33.111011
 20
73.032914
 30
0.0
 10
32.253316
 20
73.032914
 30
0.0
 10
31.557163
 20
72.630990
 30
0.0
  0
SPLINE
  5
193
100
AcDbEntity
  8
Enclosure_side_fasteners
 62
7
100
AcDbSpline
 70
8
 71
3
 72
8
 73
4
 74
0
 40
0
 40
0
 40
0
 40
0
 40
1
 40
1
 40
1
 40
1
 10
31.557163
 20
72.630990
 30
0.0
 10
30.861010
 20
72.229066
 30
0.0
 10
30.432163
 20
71.486280
 30
0.0
 10
30.432163
 20
70.682432
 30
0.0
  0
SPLINE
  5
194
100
AcDbEntity
  8
Enclosure_side_fasteners
 62
7
100
AcDbSpline
 70
8
 71
3
 72
8
 73
4
 74
0
 40
0
 40
0
 40
0
 40
0
 40
1
 40
1
 40
1
 40
1
 10
30.432163
 20
70.682432
 30
0.0
 10
30.432163
 20
69.878584
 30
0.0
 10
30.861010
 20
69.135798
 30
0.0
 10
31.557163
 20
68.733874
 30
0.0
  0
SPLINE
  5
195
100
AcDbEntity
  8
Enclosure_side_fasteners
 62
7
100
AcDbSpline
 70
8
 71
3
 72
8
 73
4
 74
0
 40
0
 40
0
 40
0
 40
0
 40
1
 40
1
 40
1
 40
1
 10
31.557163
 20
68.733874
 30
0.0
 10
32.253316
 20
68.331950
 30
0.0
 10
33.111011
 20
68.331950
 30
0.0
 10
33.807164
 20
68.733874
 30
0.0
  0
SPLINE
  5
196
100
AcDbEntity
  8
Enclosure_side_fasteners
 62
7
100
AcDbSpline
 70
8
 71
3
 72
8
 73
4
 74
0
 40
0
 40
0
 40
0
 40
0
 40
1
 40
1
 40
1
 40
1
 10
33.807164
 20
68.733874
 30
0.0
 10
34.503317
 20
69.135798
 30
0.0
 10
34.932165
 20
69.878584
 30
0.0
 10
34.932165
 20
70.682432
 30
0.0
  0
LINE
  5
197
100
AcDbEntity
  8
Enclosure_side_fasteners
 62
7
100
AcDbLine
 10
34.932165
 20
70.682432
 30
0.0
 11
34.932165
 21
70.682432
 31
0.0
  0
SPLINE
  5
198
100
AcDbEntity
  8
Enclosure_side_fasteners
 62
7
100
AcDbSpline
 70
8
 71
3
 72
8
 73
4
 74
0
 40
0
 40
0
 40
0
 40
0
 40
1
 40
1
 40
1
 40
1
 10
37.032163
 20
70.682432
 30
0.0
 10
37.032163
 20
72.236537
 30
0.0
 10
36.203057
 20
73.672590
 30
0.0
 10
34.857162
 20
74.449642
 30
0.0
  0
SPLINE
  5
199
100
AcDbEntity
  8
Enclosure_side_fasteners
 62
7
100
AcDbSpline
 70
8
 71
3
 72
8
 73
4
 74
0
 40
0
 40
0
 40
0
 40
0
 40
1
 40
1
 40
1
 40
1
 10
34.857162
 20
74.449642
 30
0.0
 10
33.511268
 20
75.226695
 30
0.0
 10
31.853057
 20
75.226695
 30
0.0
 10
30.507162
 20
74.449642
 30
0.0
  0
SPLINE
  5
19a
100
AcDbEntity
  8
Enclosure_side_fasteners
 62
7
100
AcDbSpline
 70
8
 71
3
 72
8
 73
4
 74
0
 40
0
 40
0
 40
0
 40
0
 40
1
 40
1
 40
1
 40
1
 10
30.507162
 20
74.449642
 30
0.0
 10
29.161267
 20
73.672590
 30
0.0
 10
28.332162
 20
72.236537
 30
0.0
 10
28.332162
 20
70.682432
 30
0.0
  0
SPLINE
  5
19b
100
AcDbEntity
  8
Enclosure_side_fasteners
 62
7
100
AcDbSpline
 70
8
 71
3
 72
8
 73
4
 74
0
 40
0
 40
0
 40
0
 40
0
 40
1
 40
1
 40
1
 40
1
 10
28.332162
 20
70.682432
 30
0.0
 10
28.332162
 20
69.128326
 30
0.0
 10
29.161267
 20
67.692274
 30
0.0
 10
30.507162
 20
66.915221
 30
0.0
  0
SPLINE
  5
19c
100
AcDbEntity
  8
Enclosure_side_fasteners
 62
7
100
AcDbSpline
 70
8
 71
3
 72
8
 73
4
 74
0
 40
0
 40
0
 40
0
 40
0
 40
1
 40
1
 40
1
 40
1
 10
30.507162
 20
66.915221
 30
0.0
 10
31.853057
 20
66.138168
 30
0.0
 10
33.511268
 20
66.138168
 30
0.0
 10
34.857162
 20
66.915221
 30
0.0
  0
SPLINE
  5
19d
100
AcDbEntity
  8
Enclosure_side_fasteners
 62
7
100
AcDbSpline
 70
8
 71
3
 72
8
 73
4
 74
0
 40
0
 40
0
 40
0
 40
0
 40
1
 40
1
 40
1
 40
1
 10
34.857162
 20
66.915221
 30
0.0
 10
36.203057
 20
67.692274
 30
0.0
 10
37.032163
 20
69.128326
 30
0.0
 10
37.032163
 20
70.682432
 30
0.0
  0
LINE
  5
19e
100
AcDbEntity
  8
Enclosure_side_fasteners
 62
7
100
AcDbLine
 10
37.032163
 20
70.682432
 30
0.0
 11
37.032163
 21
70.682432
 31
0.0
  0
SPLINE
  5
19f
100
AcDbEntity
  8
Enclosure_side_fasteners
 62
7
100
AcDbSpline
 70
8
 71
3
 72
8
 73
4
 74
0
 40
0
 40
0
 40
0
 40
0
 40
1
 40
1
 40
1
 40
1
 10
34.932165
 20
17.682428
 30
0.0
 10
34.932165
 20
18.486276
 30
0.0
 10
34.503317
 20
19.229062
 30
0.0
 10
33.807164
 20
19.630986
 30
0.0
  0
SPLINE
  5
1a0
100
AcDbEntity
  8
Enclosure_side_fasteners
 62
7
100
AcDbSpline
 70
8
 71
3
 72
8
 73
4
 74
0
 40
0
 40
0
 40
0
 40
0
 40
1
 40
1
 40
1
 40
1
 10
33.807164
 20
19.630986
 30
0.0
 10
33.111011
 20
20.032910
 30
0.0
 10
32.253316
 20
20.032910
 30
0.0
 10
31.557163
 20
19.630986
 30
0.0
  0
SPLINE
  5
1a1
100
AcDbEntity
  8
Enclosure_side_fasteners
 62
7
100
AcDbSpline
 70
8
 71
3
 72
8
 73
4
 74
0
 40
0
 40
0
 40
0
 40
0
 40
1
 40
1
 40
1
 40
1
 10
31.557163
 20
19.630986
 30
0.0
 10
30.861010
 20
19.229062
 30
0.0
 10
30.432163
 20
18.486276
 30
0.0
 10
30.432163
 20
17.682428
 30
0.0
  0
SPLINE
  5
1a2
100
AcDbEntity
  8
Enclosure_side_fasteners
 62
7
100
AcDbSpline
 70
8
 71
3
 72
8
 73
4
 74
0
 40
0
 40
0
 40
0
 40
0
 40
1
 40
1
 40
1
 40
1
 10
30.432163
 20
17.682428
 30
0.0
 10
30.432163
 20
16.878580
 30
0.0
 10
30.861010
 20
16.135794
 30
0.0
 10
31.557163
 20
15.733870
 30
0.0
  0
SPLINE
  5
1a3
100
AcDbEntity
  8
Enclosure_side_fasteners
 62
7
100
AcDbSpline
 70
8
 71
3
 72
8
 73
4
 74
0
 40
0
 40
0
 40
0
 40
0
 40
1
 40
1
 40
1
 40
1
 10
31.557163
 20
15.733870
 30
0.0
 10
32.253316
 20
15.331946
 30
0.0
 10
33.111011
 20
15.331946
 30
0.0
 10
33.807164
 20
15.733870
 30
0.0
  0
SPLINE
  5
1a4
100
AcDbEntity
  8
Enclosure_side_fasteners
 62
7
100
AcDbSpline
 70
8
 71
3
 72
8
 73
4
 74
0
 40
0
 40
0
 40
0
 40
0
 40
1
 40
1
 40
1
 40
1
 10
33.807164
 20
15.733870
 30
0.0
 10
34.503317
 20
16.135794
 30
0.0
 10
34.932165
 20
16.878580
 30
0.0
 10
34.932165
 20
17.682428
 30
0.0
  0
LINE
  5
1a5
100
AcDbEntity
  8
Enclosure_side_fasteners
 62
7
100
AcDbLine
 10
34.932165
 20
17.682428
 30
0.0
 11
34.932165
 21
17.682428
 31
0.0
  0
SPLINE
  5
1a6
100
AcDbEntity
  8
Enclosure_side_fasteners
 62
7
100
AcDbSpline
 70
8
 71
3
 72
8
 73
4
 74
0
 40
0
 40
0
 40
0
 40
0
 40
1
 40
1
 40
1
 40
1
 10
37.032163
 20
17.682428
 30
0.0
 10
37.032163
 20
19.236534
 30
0.0
 10
36.203057
 20
20.672586
 30
0.0
 10
34.857162
 20
21.449639
 30
0.0
  0
SPLINE
  5
1a7
100
AcDbEntity
  8
Enclosure_side_fasteners
 62
7
100
AcDbSpline
 70
8
 71
3
 72
8
 73
4
 74
0
 40
0
 40
0
 40
0
 40
0
 40
1
 40
1
 40
1
 40
1
 10
34.857162
 20
21.449639
 30
0.0
 10
33.511268
 20
22.226692
 30
0.0
 10
31.853057
 20
22.226692
 30
0.0
 10
30.507162
 20
21.449639
 30
0.0
  0
SPLINE
  5
1a8
100
AcDbEntity
  8
Enclosure_side_fasteners
 62
7
100
AcDbSpline
 70
8
 71
3
 72
8
 73
4
 74
0
 40
0
 40
0
 40
0
 40
0
 40
1
 40
1
 40
1
 40
1
 10
30.507162
 20
21.449639
 30
0.0
 10
29.161267
 20
20.672586
 30
0.0
 10
28.332162
 20
19.236534
 30
0.0
 10
28.332162
 20
17.682428
 30
0.0
  0
SPLINE
  5
1a9
100
AcDbEntity
  8
Enclosure_side_fasteners
 62
7
100
AcDbSpline
 70
8
 71
3
 72
8
 73
4
 74
0
 40
0
 40
0
 40
0
 40
0
 40
1
 40
1
 40
1
 40
1
 10
28.332162
 20
17.682428
 30
0.0
 10
28.332162
 20
16.128323
 30
0.0
 10
29.161267
 20
14.692270
 30
0.0
 10
30.507162
 20
13.915217
 30
0.0
  0
SPLINE
  5
1aa
100
AcDbEntity
  8
Enclosure_side_fasteners
 62
7
100
AcDbSpline
 70
8
 71
3
 72
8
 73
4
 74
0
 40
0
 40
0
 40
0
 40
0
 40
1
 40
1
 40
1
 40
1
 10
30.507162
 20
13.915217
 30
0.0
 10
31.853057
 20
13.138165
 30
0.0
 10
33.511268
 20
13.138165
 30
0.0
 10
34.857162
 20
13.915217
 30
0.0
  0
SPLINE
  5
1ab
100
AcDbEntity
  8
Enclosure_side_fasteners
 62
7
100
AcDbSpline
 70
8
 71
3
 72
8
 73
4
 74
0
 40
0
 40
0
 40
0
 40
0
 40
1
 40
1
 40
1
 40
1
 10
34.857162
 20
13.915217
 30
0.0
 10
36.203057
 20
14.692270
 30
0.0
 10
37.032163
 20
16.128323
 30
0.0
 10
37.032163
 20
17.682428
 30
0.0
  0
LINE
  5
1ac
100
AcDbEntity
  8
Enclosure_side_fasteners
 62
7
100
AcDbLine
 10
37.032163
 20
17.682428
 30
0.0
 11
37.032163
 21
17.682428
 31
0.0
  0
SPLINE
  5
1ad
100
AcDbEntity
  8
Enclosure_side_fasteners
 62
7
100
AcDbSpline
 70
8
 71
3
 72
8
 73
4
 74
0
 40
0
 40
0
 40
0
 40
0
 40
1
 40
1
 40
1
 40
1
 10
452.432185
 20
70.682432
 30
0.0
 10
452.432185
 20
71.486281
 30
0.0
 10
452.003337
 20
72.229067
 30
0.0
 10
451.307183
 20
72.630992
 30
0.0
  0
SPLINE
  5
1ae
100
AcDbEntity
  8
Enclosure_side_fasteners
 62
7
100
AcDbSpline
 70
8
 71
3
 72
8
 73
4
 74
0
 40
0
 40
0
 40
0
 40
0
 40
1
 40
1
 40
1
 40
1
 10
451.307183
 20
72.630992
 30
0.0
 10
450.611030
 20
73.032916
 30
0.0
 10
449.753333
 20
73.032916
 30
0.0
 10
449.057180
 20
72.630992
 30
0.0
  0
SPLINE
  5
1af
100
AcDbEntity
  8
Enclosure_side_fasteners
 62
7
100
AcDbSpline
 70
8
 71
3
 72
8
 73
4
 74
0
 40
0
 40
0
 40
0
 40
0
 40
1
 40
1
 40
1
 40
1
 10
449.057180
 20
72.630992
 30
0.0
 10
448.361026
 20
72.229067
 30
0.0
 10
447.932178
 20
71.486281
 30
0.0
 10
447.932178
 20
70.682432
 30
0.0
  0
SPLINE
  5
1b0
100
AcDbEntity
  8
Enclosure_side_fasteners
 62
7
100
AcDbSpline
 70
8
 71
3
 72
8
 73
4
 74
0
 40
0
 40
0
 40
0
 40
0
 40
1
 40
1
 40
1
 40
1
 10
447.932178
 20
70.682432
 30
0.0
 10
447.932178
 20
69.878583
 30
0.0
 10
448.361026
 20
69.135796
 30
0.0
 10
449.057180
 20
68.733871
 30
0.0
  0
SPLINE
  5
1b1
100
AcDbEntity
  8
Enclosure_side_fasteners
 62
7
100
AcDbSpline
 70
8
 71
3
 72
8
 73
4
 74
0
 40
0
 40
0
 40
0
 40
0
 40
1
 40
1
 40
1
 40
1
 10
449.057180
 20
68.733871
 30
0.0
 10
449.753333
 20
68.331947
 30
0.0
 10
450.611030
 20
68.331947
 30
0.0
 10
451.307183
 20
68.733871
 30
0.0
  0
SPLINE
  5
1b2
100
AcDbEntity
  8
Enclosure_side_fasteners
 62
7
100
AcDbSpline
 70
8
 71
3
 72
8
 73
4
 74
0
 40
0
 40
0
 40
0
 40
0
 40
1
 40
1
 40
1
 40
1
 10
451.307183
 20
68.733871
 30
0.0
 10
452.003337
 20
69.135796
 30
0.0
 10
452.432185
 20
69.878583
 30
0.0
 10
452.432185
 20
70.682432
 30
0.0
  0
LINE
  5
1b3
100
AcDbEntity
  8
Enclosure_side_fasteners
 62
7
100
AcDbLine
 10
452.432185
 20
70.682432
 30
0.0
 11
452.432185
 21
70.682432
 31
0.0
  0
LINE
  5
1b4
100
AcDbEntity
  8
Rack_ear_holes
 62
7
100
AcDbLine
 10
5.329767
 20
86.032431
 30
0.0
 11
12.534636
 21
86.032431
 31
0.0
  0
SPLINE
  5
1b5
100
AcDbEntity
  8
Rack_ear_holes
 62
7
100
AcDbSpline
 70
8
 71
3
 72
8
 73
4
 74
0
 40
0
 40
0
 40
0
 40
0
 40
1
 40
1
 40
1
 40
1
 10
5.329738
 20
86.032431
 30
0.0
 10
4.309072
 20
85.051930
 30
0.0
 10
3.732168
 20
83.697754
 30
0.0
 10
3.732168
 20
82.282430
 30
0.0
  0
SPLINE
  5
1b6
100
AcDbEntity
  8
Rack_ear_holes
 62
7
100
AcDbSpline
 70
8
 71
3
 72
8
 73
4
 74
0
 40
0
 40
0
 40
0
 40
0
 40
1
 40
1
 40
1
 40
1
 10
3.732168
 20
82.282430
 30
0.0
 10
3.732168
 20
80.867107
 30
0.0
 10
4.309072
 20
79.512931
 30
0.0
 10
5.329738
 20
78.532430
 30
0.0
  0
LINE
  5
1b7
100
AcDbEntity
  8
Rack_ear_holes
 62
7
100
AcDbLine
 10
12.534636
 20
78.532421
 30
0.0
 11
5.329767
 21
78.532421
 31
0.0
  0
SPLINE
  5
1b8
100
AcDbEntity
  8
Rack_ear_holes
 62
7
100
AcDbSpline
 70
8
 71
3
 72
8
 73
4
 74
0
 40
0
 40
0
 40
0
 40
0
 40
1
 40
1
 40
1
 40
1
 10
12.534597
 20
78.532430
 30
0.0
 10
13.555263
 20
79.512931
 30
0.0
 10
14.132167
 20
80.867107
 30
0.0
 10
14.132167
 20
82.282430
 30
0.0
  0
SPLINE
  5
1b9
100
AcDbEntity
  8
Rack_ear_holes
 62
7
100
AcDbSpline
 70
8
 71
3
 72
8
 73
4
 74
0
 40
0
 40
0
 40
0
 40
0
 40
1
 40
1
 40
1
 40
1
 10
14.132167
 20
82.282430
 30
0.0
 10
14.132167
 20
83.697754
 30
0.0
 10
13.555263
 20
85.051930
 30
0.0
 10
12.534597
 20
86.032431
 30
0.0
  0
LINE
  5
1ba
100
AcDbEntity
  8
Rack_ear_holes
 62
7
100
AcDbLine
 10
5.329767
 20
9.832454
 30
0.0
 11
12.534636
 21
9.832454
 31
0.0
  0
SPLINE
  5
1bb
100
AcDbEntity
  8
Rack_ear_holes
 62
7
100
AcDbSpline
 70
8
 71
3
 72
8
 73
4
 74
0
 40
0
 40
0
 40
0
 40
0
 40
1
 40
1
 40
1
 40
1
 10
5.329738
 20
9.832425
 30
0.0
 10
4.309072
 20
8.851925
 30
0.0
 10
3.732168
 20
7.497749
 30
0.0
 10
3.732168
 20
6.082426
 30
0.0
  0
SPLINE
  5
1bc
100
AcDbEntity
  8
Rack_ear_holes
 62
7
100
AcDbSpline
 70
8
 71
3
 72
8
 73
4
 74
0
 40
0
 40
0
 40
0
 40
0
 40
1
 40
1
 40
1
 40
1
 10
3.732168
 20
6.082426
 30
0.0
 10
3.732168
 20
4.667103
 30
0.0
 10
4.309072
 20
3.312927
 30
0.0
 10
5.329738
 20
2.332427
 30
0.0
  0
LINE
  5
1bd
100
AcDbEntity
  8
Rack_ear_holes
 62
7
100
AcDbLine
 10
12.534636
 20
2.332310
 30
0.0
 11
5.329767
 21
2.332310
 31
0.0
  0
SPLINE
  5
1be
100
AcDbEntity
  8
Rack_ear_holes
 62
7
100
AcDbSpline
 70
8
 71
3
 72
8
 73
4
 74
0
 40
0
 40
0
 40
0
 40
0
 40
1
 40
1
 40
1
 40
1
 10
12.534597
 20
2.332427
 30
0.0
 10
13.555262
 20
3.312927
 30
0.0
 10
14.132166
 20
4.667103
 30
0.0
 10
14.132166
 20
6.082426
 30
0.0
  0
SPLINE
  5
1bf
100
AcDbEntity
  8
Rack_ear_holes
 62
7
100
AcDbSpline
 70
8
 71
3
 72
8
 73
4
 74
0
 40
0
 40
0
 40
0
 40
0
 40
1
 40
1
 40
1
 40
1
 10
14.132166
 20
6.082426
 30
0.0
 10
14.132166
 20
7.497749
 30
0.0
 10
13.555262
 20
8.851925
 30
0.0
 10
12.534597
 20
9.832425
 30
0.0
  0
LINE
  5
1c0
100
AcDbEntity
  8
Rack_ear_holes
 62
7
100
AcDbLine
 10
477.534848
 20
78.532421
 30
0.0
 11
470.330243
 21
78.532421
 31
0.0
  0
SPLINE
  5
1c1
100
AcDbEntity
  8
Rack_ear_holes
 62
7
100
AcDbSpline
 70
8
 71
3
 72
8
 73
4
 74
0
 40
0
 40
0
 40
0
 40
0
 40
1
 40
1
 40
1
 40
1
 10
470.329767
 20
86.032431
 30
0.0
 10
469.309101
 20
85.051930
 30
0.0
 10
468.732197
 20
83.697754
 30
0.0
 10
468.732197
 20
82.282430
 30
0.0
  0
SPLINE
  5
1c2
100
AcDbEntity
  8
Rack_ear_holes
 62
7
100
AcDbSpline
 70
8
 71
3
 72
8
 73
4
 74
0
 40
0
 40
0
 40
0
 40
0
 40
1
 40
1
 40
1
 40
1
 10
468.732197
 20
82.282430
 30
0.0
 10
468.732197
 20
80.867107
 30
0.0
 10
469.309101
 20
79.512931
 30
0.0
 10
470.329767
 20
78.532430
 30
0.0
  0
SPLINE
  5
1c3
100
AcDbEntity
  8
Rack_ear_holes
 62
7
100
AcDbSpline
 70
8
 71
3
 72
8
 73
4
 74
0
 40
0
 40
0
 40
0
 40
0
 40
1
 40
1
 40
1
 40
1
 10
477.534636
 20
78.532430
 30
0.0
 10
478.555302
 20
79.512931
 30
0.0
 10
479.132206
 20
80.867107
 30
0.0
 10
479.132206
 20
82.282430
 30
0.0
  0
SPLINE
  5
1c4
100
AcDbEntity
  8
Rack_ear_holes
 62
7
100
AcDbSpline
 70
8
 71
3
 72
8
 73
4
 74
0
 40
0
 40
0
 40
0
 40
0
 40
1
 40
1
 40
1
 40
1
 10
479.132206
 20
82.282430
 30
0.0
 10
479.132206
 20
83.697754
 30
0.0
 10
478.555302
 20
85.051930
 30
0.0
 10
477.534636
 20
86.032431
 30
0.0
  0
LINE
  5
1c5
100
AcDbEntity
  8
Rack_ear_holes
 62
7
100
AcDbLine
 10
470.330243
 20
86.032431
 30
0.0
 11
477.534848
 21
86.032431
 31
0.0
  0
LINE
  5
1c6
100
AcDbEntity
  8
Rack_ear_holes
 62
7
100
AcDbLine
 10
470.330243
 20
9.832454
 30
0.0
 11
477.534848
 21
9.832454
 31
0.0
  0
LINE
  5
1c7
100
AcDbEntity
  8
Rack_ear_holes
 62
7
100
AcDbLine
 10
477.534848
 20
2.332310
 30
0.0
 11
470.330243
 21
2.332310
 31
0.0
  0
SPLINE
  5
1c8
100
AcDbEntity
  8
Rack_ear_holes
 62
7
100
AcDbSpline
 70
8
 71
3
 72
8
 73
4
 74
0
 40
0
 40
0
 40
0
 40
0
 40
1
 40
1
 40
1
 40
1
 10
477.534636
 20
2.332427
 30
0.0
 10
478.555302
 20
3.312927
 30
0.0
 10
479.132206
 20
4.667103
 30
0.0
 10
479.132206
 20
6.082426
 30
0.0
  0
SPLINE
  5
1c9
100
AcDbEntity
  8
Rack_ear_holes
 62
7
100
AcDbSpline
 70
8
 71
3
 72
8
 73
4
 74
0
 40
0
 40
0
 40
0
 40
0
 40
1
 40
1
 40
1
 40
1
 10
479.132206
 20
6.082426
 30
0.0
 10
479.132206
 20
7.497749
 30
0.0
 10
478.555302
 20
8.851925
 30
0.0
 10
477.534636
 20
9.832425
 30
0.0
  0
SPLINE
  5
1ca
100
AcDbEntity
  8
Rack_ear_holes
 62
7
100
AcDbSpline
 70
8
 71
3
 72
8
 73
4
 74
0
 40
0
 40
0
 40
0
 40
0
 40
1
 40
1
 40
1
 40
1
 10
470.329767
 20
9.832425
 30
0.0
 10
469.309101
 20
8.851925
 30
0.0
 10
468.732197
 20
7.497749
 30
0.0
 10
468.732197
 20
6.082426
 30
0.0
  0
SPLINE
  5
1cb
100
AcDbEntity
  8
Rack_ear_holes
 62
7
100
AcDbSpline
 70
8
 71
3
 72
8
 73
4
 74
0
 40
0
 40
0
 40
0
 40
0
 40
1
 40
1
 40
1
 40
1
 10
468.732197
 20
6.082426
 30
0.0
 10
468.732197
 20
4.667103
 30
0.0
 10
469.309101
 20
3.312927
 30
0.0
 10
470.329767
 20
2.332427
 30
0.0
  0
ENDSEC
  0
SECTION
  2
OBJECTS
  0
DICTIONARY
  5
C
330
0
100
AcDbDictionary
  3
ACAD_GROUP
350
D
  3
ACAD_MLINESTYLE
350
17
  0
DICTIONARY
  5
D
330
C
100
AcDbDictionary
  0
DICTIONARY
  5
1A
330
C
100
AcDbDictionary
  0
DICTIONARY
  5
17
330
C
100
AcDbDictionary
  3
STANDARD
350
18
  0
DICTIONARY
  5
19
330
C
100
AcDbDictionary
  0
ENDSEC
  0
EOF
